<svg width="19" height="20" viewBox="0 0 19 20" fill="none" xmlns="http://www.w3.org/2000/svg">
<path d="M1.89999 3C1.89999 2.73478 2.00008 2.48043 2.17824 2.29289C2.3564 2.10536 2.59804 2 2.84999 2H4.89534C5.12021 2.00011 5.33776 2.08418 5.50928 2.23726C5.68079 2.39034 5.79517 2.6025 5.83204 2.836L6.53504 7.271C6.56863 7.48222 6.53692 7.69921 6.44457 7.89003C6.35222 8.08085 6.20411 8.23543 6.02204 8.331L4.55144 9.104C5.0788 10.4797 5.86419 11.7293 6.86068 12.7782C7.85718 13.8272 9.04433 14.6539 10.3512 15.209L11.0865 13.661C11.1772 13.4695 11.3239 13.3138 11.505 13.2166C11.6861 13.1194 11.892 13.0859 12.0925 13.121L16.3058 13.861C16.5276 13.8998 16.7292 14.0202 16.8746 14.2008C17.02 14.3813 17.0999 14.6103 17.1 14.847V17C17.1 17.2652 16.9999 17.5196 16.8217 17.7071C16.6436 17.8946 16.4019 18 16.15 18H14.25C7.42899 18 1.89999 12.18 1.89999 5V3Z" fill="white"/>
</svg>
