<svg width="490" height="159" viewBox="0 0 490 159" fill="none" xmlns="http://www.w3.org/2000/svg">
<mask id="mask0_89_244" style="mask-type:luminance" maskUnits="userSpaceOnUse" x="0" y="0" width="490" height="159">
<path d="M490 0H0V159H490V0Z" fill="white"/>
</mask>
<g mask="url(#mask0_89_244)">
<path fill-rule="evenodd" clip-rule="evenodd" d="M57.0913 124.265C56.0131 123.976 54.9469 123.654 53.8929 123.298C51.5874 122.486 49.3301 121.544 47.1319 120.475C44.3596 119.077 41.7168 117.437 39.2345 115.572L39.1955 115.546C29.2253 108.048 22.2642 97.2344 19.5686 85.0562C16.873 72.878 18.6204 60.1376 24.4956 49.1343C20.707 55.3346 18.2075 62.2347 17.1464 69.4225C16.0854 76.6103 16.4845 83.9381 18.3201 90.9682C20.1556 97.9983 23.3898 104.586 27.8295 110.339C32.2692 116.091 37.8232 120.889 44.1597 124.447L44.2065 124.473C46.5582 125.792 49.006 126.931 51.5291 127.882C51.8386 127.999 52.1506 128.11 52.4601 128.22C66.6974 133.513 82.341 133.647 96.6665 128.597C97.3478 128.376 98.0291 128.139 98.7156 127.882C101.944 126.665 105.048 125.14 107.983 123.327L108.007 123.314C120.17 115.804 128.865 103.786 132.191 89.8853C135.517 75.985 133.203 61.3337 125.754 49.1343C131.591 60.06 133.359 72.7026 130.743 84.8097C128.127 96.9169 121.296 107.702 111.468 115.245L111.45 115.258C109.629 116.656 107.718 117.933 105.729 119.079C102.101 121.066 98.2881 122.696 94.3444 123.946C93.8945 124.078 93.4421 124.206 92.987 124.325C91.3175 124.824 89.6325 125.251 87.9318 125.604C86.9922 125.798 86.05 125.972 85.1052 126.124C79.7992 126.987 74.4039 127.162 69.0531 126.644C68.8113 126.623 68.572 126.597 68.3302 126.571H68.2496C66.2317 126.356 64.219 126.051 62.2245 125.633V125.604C60.4909 125.24 58.779 124.807 57.0887 124.304" fill="#FFAF00"/>
<path fill-rule="evenodd" clip-rule="evenodd" d="M75.6997 138.657C77.2153 139.888 78.4355 141.443 79.2705 143.207C80.1054 144.972 80.5338 146.901 80.5241 148.853C80.5143 150.805 80.0667 152.73 79.2142 154.486C78.3618 156.242 77.1261 157.785 75.5982 159C74.0835 157.769 72.864 156.214 72.0297 154.45C71.1953 152.685 70.7672 150.756 70.777 148.805C70.7867 146.853 71.234 144.928 72.0859 143.172C72.9378 141.416 74.1727 139.873 75.6997 138.657Z" fill="#FFAF00"/>
<path fill-rule="evenodd" clip-rule="evenodd" d="M78.4925 137.004C79.9581 136.844 81.4409 137.015 82.8318 137.503C84.2228 137.992 85.4865 138.786 86.5298 139.827C87.5732 140.869 88.3697 142.131 88.8608 143.52C89.3518 144.91 89.5249 146.392 89.3673 147.858C87.9018 148.017 86.4192 147.846 85.0284 147.358C83.6377 146.869 82.3743 146.075 81.331 145.033C80.2877 143.992 79.4912 142.73 79 141.341C78.5088 139.951 78.3353 138.469 78.4925 137.004Z" fill="#FFAF00"/>
<path fill-rule="evenodd" clip-rule="evenodd" d="M65.1889 139.06C66.3363 138.135 67.677 137.48 69.1119 137.142C70.5468 136.805 72.0393 136.794 73.4789 137.111C73.4798 138.584 73.1503 140.039 72.5146 141.368C71.8789 142.697 70.9532 143.867 69.8056 144.791C68.658 145.716 67.3177 146.371 65.8833 146.709C64.4489 147.047 62.9569 147.06 61.5172 146.745C61.5144 145.271 61.8434 143.814 62.4799 142.484C63.1164 141.154 64.044 139.984 65.1941 139.06" fill="#FFAF00"/>
<path fill-rule="evenodd" clip-rule="evenodd" d="M36.941 124.039C37.321 125.805 37.2999 127.634 36.8792 129.391C36.4585 131.148 35.6489 132.788 34.5101 134.191C33.3713 135.594 31.9323 136.723 30.299 137.496C28.6658 138.269 26.8799 138.666 25.0728 138.657C24.6933 136.891 24.7148 135.062 25.1357 133.306C25.5566 131.549 26.3662 129.909 27.5049 128.507C28.6436 127.104 30.0824 125.975 31.7154 125.201C33.3485 124.428 35.1341 124.031 36.941 124.039Z" fill="#FFAF00"/>
<path fill-rule="evenodd" clip-rule="evenodd" d="M39.9211 124.458C41.0718 125.191 42.0435 126.173 42.7645 127.331C43.4854 128.489 43.9374 129.794 44.0871 131.15C44.2368 132.506 44.0804 133.878 43.6295 135.166C43.1785 136.453 42.4444 137.623 41.4813 138.59C40.3305 137.857 39.3589 136.875 38.6379 135.717C37.9169 134.558 37.4649 133.253 37.3152 131.897C37.1655 130.541 37.3219 129.169 37.7729 127.882C38.2239 126.594 38.9579 125.424 39.9211 124.458Z" fill="#FFAF00"/>
<path fill-rule="evenodd" clip-rule="evenodd" d="M29.1243 118.239C30.4887 118.236 31.8363 118.54 33.0673 119.129C34.2984 119.717 35.3814 120.574 36.2363 121.637C35.3824 122.701 34.3006 123.56 33.0706 124.151C31.8407 124.742 30.4938 125.049 29.1293 125.05C27.7648 125.052 26.4173 124.748 25.186 124.159C23.9548 123.571 22.8711 122.715 22.0148 121.653C22.8679 120.587 23.9498 119.727 25.1805 119.136C26.4112 118.545 27.759 118.239 29.1243 118.239Z" fill="#FFAF00"/>
<path fill-rule="evenodd" clip-rule="evenodd" d="M31.1448 89.219C32.3528 88.5625 33.6929 88.1857 35.0661 88.1164C36.4393 88.0471 37.8105 88.2871 39.0785 88.8187C38.8315 90.1708 38.2845 91.4504 37.4778 92.5633C36.671 93.6763 35.625 94.5943 34.4167 95.25C33.2083 95.9056 31.8683 96.2822 30.4953 96.352C29.1222 96.4218 27.7509 96.183 26.4823 95.6533C26.7276 94.3001 27.2739 93.0193 28.0809 91.9055C28.888 90.7918 29.935 89.8737 31.1448 89.219Z" fill="#FFAF00"/>
<path fill-rule="evenodd" clip-rule="evenodd" d="M32.3123 97.0259C33.3053 97.3267 34.218 97.8466 34.9831 98.5471C35.7482 99.2477 36.3462 100.111 36.733 101.074C35.8757 101.659 34.898 102.045 33.8718 102.203C32.8455 102.361 31.7969 102.287 30.8031 101.986C29.8093 101.686 28.8956 101.166 28.1294 100.465C27.3632 99.7646 26.7639 98.9011 26.3757 97.9383C27.2328 97.3517 28.2109 96.9651 29.2375 96.8072C30.2642 96.6492 31.3132 96.724 32.3071 97.0259" fill="#FFAF00"/>
<path fill-rule="evenodd" clip-rule="evenodd" d="M26.7839 84.1548C27.4586 84.9436 27.9479 85.8736 28.2157 86.8763C28.4835 87.8791 28.5231 88.9291 28.3315 89.9491C28.1399 90.9692 27.722 91.9333 27.1086 92.7707C26.4952 93.608 25.7018 94.2972 24.7868 94.7875C24.1116 93.9989 23.6219 93.069 23.3538 92.0661C23.0857 91.0633 23.046 90.0131 23.2377 88.9929C23.4293 87.9727 23.8474 87.0084 24.4611 86.1711C25.0748 85.3338 25.8685 84.6448 26.7839 84.1548Z" fill="#FFAF00"/>
<path fill-rule="evenodd" clip-rule="evenodd" d="M13.522 72.9475C12.6357 73.8998 11.547 74.6411 10.3361 75.1168C9.12524 75.5925 7.82301 75.7905 6.5254 75.6962C5.2278 75.6019 3.9679 75.2177 2.83855 74.5719C1.7092 73.9261 0.739187 73.0352 0 71.9649C0.886253 71.0126 1.97494 70.2713 3.18584 69.7956C4.39673 69.3199 5.69896 69.1219 6.99657 69.2162C8.29418 69.3105 9.55408 69.6947 10.6834 70.3405C11.8128 70.9863 12.7828 71.8772 13.522 72.9475Z" fill="#FFAF00"/>
<path fill-rule="evenodd" clip-rule="evenodd" d="M14.4945 74.8713C14.5351 75.852 14.3552 76.8294 13.968 77.7315C13.5808 78.6335 12.9962 79.4373 12.2572 80.0836C11.5181 80.7299 10.6435 81.2022 9.69776 81.4659C8.75197 81.7296 7.75908 81.7778 6.79218 81.6071C6.75204 80.6264 6.93227 79.6493 7.31963 78.7475C7.70699 77.8456 8.29162 77.0421 9.03052 76.3959C9.76943 75.7497 10.6438 75.2773 11.5894 75.0135C12.535 74.7496 13.5277 74.701 14.4945 74.8713Z" fill="#FFAF00"/>
<path fill-rule="evenodd" clip-rule="evenodd" d="M13.7222 65.9465C14.286 66.75 14.6615 67.6702 14.8209 68.6387C14.9802 69.6073 14.9193 70.5992 14.6427 71.541C13.6633 71.4748 12.7113 71.1899 11.8566 70.7072C11.0019 70.2246 10.2663 69.5565 9.70395 68.7521C9.14161 67.9478 8.76683 67.0276 8.60719 66.0593C8.44755 65.091 8.5071 64.0992 8.78147 63.157C9.76133 63.2226 10.714 63.5073 11.5691 63.9901C12.4242 64.4729 13.16 65.1415 13.7222 65.9465Z" fill="#FFAF00"/>
<path fill-rule="evenodd" clip-rule="evenodd" d="M24.0535 48.4662C23.0023 48.2797 22.0063 47.8599 21.1389 47.2376C20.2715 46.6153 19.5547 45.8063 19.0415 44.8704C18.5282 43.9345 18.2315 42.8953 18.1732 41.8295C18.1149 40.7638 18.2965 39.6985 18.7045 38.7122C19.7558 38.8986 20.7518 39.3185 21.6192 39.9408C22.4866 40.5631 23.2033 41.372 23.7166 42.308C24.2299 43.2439 24.5266 44.2831 24.5849 45.3488C24.6432 46.4146 24.4616 47.4799 24.0535 48.4662Z" fill="#FFAF00"/>
<path fill-rule="evenodd" clip-rule="evenodd" d="M23.159 50.0025C22.5007 50.4669 21.7466 50.7779 20.9523 50.9127C20.1579 51.0476 19.3435 51.0027 18.5687 50.7815C17.794 50.5603 17.0787 50.1684 16.4753 49.6346C15.872 49.1007 15.396 48.4385 15.0822 47.6966C15.7407 47.2312 16.4951 46.9194 17.2901 46.7841C18.085 46.6487 18.9002 46.6933 19.6756 46.9145C20.451 47.1358 21.1669 47.528 21.7707 48.0624C22.3744 48.5969 22.8506 49.2598 23.1642 50.0025" fill="#FFAF00"/>
<path fill-rule="evenodd" clip-rule="evenodd" d="M28.9734 45.4947C28.6682 46.2391 28.2001 46.9057 27.6034 47.4455C27.0067 47.9854 26.2966 48.3848 25.5253 48.6143C25.1337 47.9097 24.905 47.1263 24.8562 46.3216C24.8074 45.517 24.9397 44.7117 25.2433 43.9649C25.5469 43.2182 26.0142 42.549 26.6106 42.0066C27.2071 41.4642 27.9177 41.0624 28.69 40.8308C29.0826 41.5353 29.312 42.319 29.361 43.124C29.4101 43.929 29.2776 44.7347 28.9734 45.4817" fill="#FFAF00"/>
<path fill-rule="evenodd" clip-rule="evenodd" d="M123.757 128.485C124.896 129.885 125.705 131.523 126.125 133.278C126.545 135.033 126.564 136.86 126.181 138.624C124.378 138.631 122.597 138.234 120.968 137.463C119.339 136.691 117.904 135.565 116.768 134.165C115.632 132.766 114.825 131.13 114.405 129.378C113.985 127.625 113.963 125.801 114.341 124.039C116.145 124.029 117.927 124.425 119.557 125.196C121.187 125.968 122.622 127.096 123.757 128.498" fill="#FFAF00"/>
<path fill-rule="evenodd" clip-rule="evenodd" d="M113.972 131.867C113.824 133.22 113.373 134.523 112.652 135.679C111.932 136.834 110.961 137.813 109.811 138.543C108.851 137.579 108.118 136.411 107.668 135.127C107.219 133.842 107.063 132.473 107.213 131.12C107.362 129.767 107.814 128.465 108.534 127.31C109.253 126.155 110.223 125.176 111.372 124.445C112.334 125.408 113.068 126.575 113.518 127.859C113.968 129.144 114.124 130.514 113.972 131.867Z" fill="#FFAF00"/>
<path fill-rule="evenodd" clip-rule="evenodd" d="M129.239 121.645C128.385 122.705 127.304 123.56 126.075 124.146C124.847 124.733 123.503 125.037 122.141 125.036C120.78 125.034 119.436 124.727 118.209 124.138C116.982 123.548 115.903 122.691 115.051 121.629C115.905 120.569 116.986 119.715 118.215 119.128C119.443 118.541 120.787 118.237 122.149 118.239C123.51 118.24 124.854 118.547 126.081 119.136C127.308 119.726 128.387 120.583 129.239 121.645Z" fill="#FFAF00"/>
<path fill-rule="evenodd" clip-rule="evenodd" d="M123.736 95.4451C122.428 95.992 121.013 96.2385 119.597 96.1664C118.181 96.0942 116.798 95.7053 115.552 95.0283C114.306 94.3513 113.228 93.4033 112.397 92.2544C111.566 91.1054 111.003 89.7847 110.75 88.3895C112.058 87.8426 113.472 87.5958 114.888 87.6674C116.303 87.7389 117.685 88.1269 118.931 88.8028C120.177 89.4788 121.255 90.4255 122.087 91.5732C122.919 92.7209 123.482 94.0405 123.736 95.4347" fill="#FFAF00"/>
<path fill-rule="evenodd" clip-rule="evenodd" d="M123.843 97.8031C123.442 98.7952 122.825 99.685 122.035 100.407C121.245 101.129 120.303 101.665 119.279 101.975C118.255 102.285 117.174 102.362 116.116 102.2C115.058 102.037 114.05 101.64 113.166 101.037C113.566 100.045 114.184 99.1544 114.974 98.4322C115.764 97.7099 116.705 97.1739 117.73 96.8636C118.754 96.5533 119.835 96.4767 120.893 96.6392C121.951 96.8018 122.959 97.1995 123.843 97.8031Z" fill="#FFAF00"/>
<path fill-rule="evenodd" clip-rule="evenodd" d="M127.086 88.5847C127.285 89.6372 127.245 90.7212 126.969 91.7562C126.693 92.7913 126.187 93.7509 125.489 94.564C124.545 94.0588 123.727 93.3483 123.094 92.4851C122.461 91.6218 122.03 90.6276 121.833 89.5757C121.635 88.5238 121.676 87.441 121.952 86.4071C122.229 85.3731 122.734 84.4142 123.43 83.6011C124.374 84.1053 125.193 84.8156 125.826 85.6791C126.459 86.5427 126.89 87.5375 127.086 88.5899" fill="#FFAF00"/>
<path fill-rule="evenodd" clip-rule="evenodd" d="M142.051 69.2196C143.348 69.1249 144.649 69.3225 145.859 69.7976C147.07 70.2727 148.158 71.0134 149.043 71.9649C148.304 73.0352 147.334 73.9261 146.205 74.5719C145.076 75.2177 143.816 75.6019 142.518 75.6962C141.22 75.7905 139.918 75.5925 138.707 75.1168C137.496 74.6411 136.408 73.8998 135.521 72.9476C136.26 71.8768 137.229 70.9857 138.359 70.3404C139.488 69.6951 140.748 69.312 142.046 69.2196" fill="#FFAF00"/>
<path fill-rule="evenodd" clip-rule="evenodd" d="M140.012 76.4024C140.75 77.0471 141.333 77.8488 141.72 78.7485C142.107 79.6482 142.288 80.6232 142.249 81.6018C141.282 81.7719 140.29 81.7234 139.345 81.4598C138.4 81.1963 137.526 80.7243 136.787 80.0787C136.048 79.4331 135.463 78.6303 135.075 77.7291C134.688 76.8279 134.507 75.8514 134.546 74.8712C135.513 74.7012 136.505 74.7501 137.45 75.0142C138.395 75.2783 139.269 75.7509 140.007 76.3972" fill="#FFAF00"/>
<path fill-rule="evenodd" clip-rule="evenodd" d="M140.262 63.1726C140.537 64.1153 140.597 65.1076 140.437 66.0765C140.277 67.0453 139.902 67.966 139.339 68.7706C138.776 69.5752 138.04 70.2432 137.184 70.7254C136.328 71.2076 135.375 71.4916 134.395 71.5566C134.122 70.614 134.063 69.6221 134.224 68.6539C134.384 67.6856 134.759 66.7655 135.322 65.9613C135.885 65.1571 136.621 64.4892 137.475 64.0066C138.33 63.524 139.282 63.239 140.262 63.1726Z" fill="#FFAF00"/>
<path fill-rule="evenodd" clip-rule="evenodd" d="M126.899 42.1828C127.411 41.2466 128.128 40.4375 128.995 39.8152C129.862 39.1929 130.858 38.7733 131.909 38.5874C132.318 39.5737 132.499 40.639 132.441 41.7048C132.383 42.7706 132.086 43.8097 131.573 44.7456C131.059 45.6816 130.343 46.4905 129.475 47.1128C128.608 47.7351 127.612 48.155 126.56 48.3415C126.152 47.3552 125.97 46.2897 126.028 45.2236C126.087 44.1576 126.384 43.1184 126.899 42.1828Z" fill="#FFAF00"/>
<path fill-rule="evenodd" clip-rule="evenodd" d="M130.942 46.7946C131.717 46.5728 132.532 46.5278 133.327 46.6627C134.122 46.7977 134.876 47.1093 135.534 47.5745C135.221 48.3172 134.745 48.9801 134.141 49.5146C133.537 50.049 132.821 50.4412 132.046 50.6625C131.27 50.8837 130.455 50.9283 129.66 50.793C128.865 50.6576 128.111 50.3458 127.452 49.8804C127.766 49.1375 128.242 48.4744 128.846 47.9403C129.45 47.4061 130.166 47.0146 130.942 46.7946Z" fill="#FFAF00"/>
<path fill-rule="evenodd" clip-rule="evenodd" d="M121.919 40.7112C122.691 40.943 123.401 41.345 123.996 41.8873C124.592 42.4297 125.059 43.0988 125.362 43.8453C125.665 44.5918 125.797 45.3967 125.748 46.2009C125.699 47.0051 125.47 47.788 125.078 48.4921C124.306 48.2611 123.595 47.8598 122.998 47.3178C122.401 46.7758 121.934 46.1069 121.63 45.3603C121.326 44.6136 121.194 43.8084 121.242 43.0038C121.291 42.1992 121.519 41.4158 121.911 40.7112" fill="#FFAF00"/>
<path d="M118.281 60.8329L118.224 60.6561C117.904 59.6162 117.548 58.5764 117.126 57.4871C116.767 56.5564 116.377 55.6101 115.977 54.6586C115.886 54.4428 115.798 54.2271 115.717 54.0113C115.337 53.1308 114.945 52.2418 114.539 51.344C114.412 51.0658 114.279 50.7877 114.154 50.5095C113.785 49.7036 113.406 48.8959 113.018 48.0866C112.87 47.772 112.719 47.46 112.57 47.1455C112.209 46.402 111.848 45.6533 111.476 44.9045C111.325 44.5952 111.169 44.2832 111.018 43.9713L109.674 41.278C109.489 40.9062 109.302 40.5371 109.117 40.1653L107.534 37.0093C107.244 36.4287 106.956 35.8489 106.67 35.2701C106.449 34.8229 106.223 34.3732 106.005 33.926C105.617 33.1461 105.237 32.3662 104.858 31.5707L104.301 30.4086C103.974 29.7145 103.649 29.0256 103.331 28.3289C103.158 27.9355 102.985 27.5455 102.811 27.159C102.497 26.4623 102.192 25.7734 101.896 25.0793C101.769 24.7829 101.636 24.4865 101.516 24.1928C101.157 23.3401 100.811 22.4943 100.476 21.6555C100.385 21.4241 100.299 21.1927 100.216 20.9613C99.878 20.0567 99.5478 19.1572 99.2539 18.2759C99.2539 18.2343 99.2305 18.1953 99.2149 18.1537C98.9029 17.2039 98.6238 16.2689 98.3776 15.3486C98.3646 15.307 98.3516 15.2654 98.3412 15.2238C97.5798 12.5733 97.2092 9.826 97.2412 7.06857C97.2282 7.16736 97.2282 7.27135 97.2152 7.37274C97.1636 4.77252 97.8634 2.21261 99.2305 0H99.1603C88.2127 16.755 103.438 41.6575 108.441 58.8857C110.451 65.7307 109.723 70.5089 107.523 73.5584C106.914 74.4081 106.168 75.1505 105.315 75.7551L105.094 75.9007C104.771 76.1177 104.435 76.3156 104.088 76.4935C103.974 76.5506 103.864 76.6156 103.745 76.6702C103.344 76.8585 102.933 77.0226 102.512 77.1616C102.32 77.224 102.12 77.2734 101.922 77.3254C101.68 77.3929 101.428 77.4579 101.176 77.5099C100.923 77.5619 100.679 77.6087 100.427 77.6477C100.226 77.6789 100.021 77.6971 99.8156 77.7179C99.2973 77.7728 98.7766 77.8006 98.2554 77.8011C98.1046 77.8011 97.9563 77.8011 97.8029 77.8011C97.4909 77.8011 97.1762 77.7699 96.859 77.7439L96.3571 77.6893C95.3311 77.5682 94.3175 77.3585 93.3277 77.0628C93.1144 77.0004 92.9064 76.938 92.6984 76.8678C92.4383 76.7768 92.1627 76.6832 91.9026 76.5818C91.6426 76.4805 91.3618 76.3609 91.0913 76.2413C90.8209 76.1217 90.5114 75.9813 90.2228 75.8331C89.8822 75.6616 89.5389 75.4822 89.2113 75.2872C89.0318 75.1832 88.8576 75.074 88.6912 74.9648C88.3705 74.7655 88.0593 74.5558 87.7576 74.3357C87.6276 74.2421 87.4976 74.1537 87.3728 74.0549C86.9515 73.736 86.5485 73.3981 86.1636 73.0411C86.0778 72.9631 86.0024 72.8773 85.9036 72.7967C85.5915 72.4925 85.2873 72.1754 85.0012 71.8452L84.7178 71.5176C84.3998 71.1339 84.1021 70.7339 83.8259 70.3192L83.8415 70.2932C78.3807 65.0496 94.9711 58.2254 96.1543 66.7576C96.6249 69.9994 95.0907 73.1164 97.1554 68.2316C99.0433 63.6952 96.976 61.696 94.7995 60.8095C97.9199 59.5798 99.5088 58.5192 95.9202 57.2817C76.1756 47.5198 77.2313 13.7784 75.4657 1.18546C73.7026 13.7836 74.7063 47.5198 55.0319 57.2947C51.4433 58.5322 53.027 59.5928 56.15 60.8225C53.9735 61.709 51.914 63.7081 53.7967 68.2446C55.8588 73.1294 54.3168 70.0124 54.7978 66.7706C55.9758 58.2384 72.5818 65.0626 67.1054 70.3062L67.1236 70.3348C66.8428 70.7533 66.5437 71.1537 66.2239 71.541C66.1381 71.6424 66.0471 71.7438 65.9639 71.8452C65.6648 72.1884 65.3554 72.5185 65.0225 72.8357C64.9523 72.9033 64.8873 72.9761 64.8171 73.0437C64.4244 73.4076 64.011 73.7534 63.5845 74.0835C63.4753 74.1667 63.3583 74.2447 63.2439 74.3253C62.9214 74.5619 62.5938 74.7855 62.2531 74.996C62.0971 75.0974 61.9359 75.1962 61.7747 75.2924C61.4141 75.5021 61.0465 75.7005 60.6721 75.8877C60.4277 76.0099 60.1806 76.1217 59.9284 76.2335C59.6761 76.3453 59.3459 76.4935 59.0521 76.6026C58.7582 76.7118 58.532 76.7924 58.2719 76.8782C58.0535 76.951 57.8351 77.0186 57.6114 77.0836C56.9418 77.2854 56.2611 77.4485 55.5727 77.5723H55.5545C55.2373 77.6269 54.9227 77.6659 54.6054 77.7023C54.4338 77.7231 54.2674 77.7413 54.0853 77.7569C53.7707 77.7829 53.456 77.8063 53.1414 77.8141C52.9932 77.8141 52.8423 77.8141 52.6941 77.8141C52.173 77.8132 51.6523 77.7863 51.1339 77.7335C50.9285 77.7101 50.723 77.6919 50.5202 77.6607C50.2602 77.6217 50.0183 77.5749 49.7739 77.5229C49.5295 77.4709 49.2668 77.4059 49.0172 77.3358C48.8248 77.2838 48.6271 77.237 48.4373 77.1746C48.0141 77.0345 47.5999 76.8687 47.1969 76.678C47.0851 76.6286 46.9811 76.5688 46.8745 76.5117C46.5151 76.3313 46.1677 76.1281 45.8343 75.9033C45.7693 75.8617 45.6991 75.8201 45.6367 75.7733C44.7826 75.1673 44.0356 74.4231 43.4264 73.5714L43.4082 73.5558C41.2082 70.5038 40.4827 65.7281 42.4902 58.8857C47.5012 41.6575 62.7264 16.755 51.7736 0H51.706C53.0754 2.20947 53.7804 4.76605 53.7369 7.36494C53.7239 7.26875 53.7239 7.16996 53.7135 7.07377C53.743 9.83105 53.3725 12.578 52.6135 15.229C52.6135 15.2706 52.5901 15.3122 52.5771 15.3512C52.3301 16.2767 52.057 17.2204 51.732 18.1771C51.732 18.2083 51.7112 18.2395 51.7008 18.2733C51.4069 19.165 51.0741 20.0749 50.7256 20.9899C50.645 21.2057 50.5644 21.4215 50.4812 21.6373C50.1484 22.4926 49.8025 23.3557 49.4411 24.237C49.3318 24.4969 49.2148 24.7569 49.0978 25.0169C48.7806 25.763 48.4477 26.5117 48.1071 27.2656C47.9848 27.5438 47.86 27.8193 47.7326 28.0975C47.3651 28.8913 46.9915 29.6903 46.6118 30.4944C46.4532 30.8194 46.2998 31.1444 46.1438 31.4719C45.7346 32.3194 45.3203 33.1713 44.9008 34.0274C44.7396 34.3498 44.5809 34.6747 44.4197 34.9997C43.9855 35.8732 43.546 36.7493 43.1195 37.628L43.0857 37.6982C42.4374 38.9824 41.7925 40.2684 41.151 41.5561C40.7748 42.3135 40.3987 43.07 40.0225 43.8257C39.8196 44.2312 39.6194 44.6368 39.4218 45.0423C39.1097 45.6793 38.7977 46.3162 38.4908 46.9505C38.2906 47.3639 38.093 47.7798 37.8954 48.1932C37.5348 48.9505 37.182 49.7027 36.837 50.4497L36.4209 51.357C36.0179 52.2383 35.6408 53.1118 35.2586 53.9827C35.165 54.2089 35.0687 54.435 34.9751 54.6638C34.5747 55.6075 34.195 56.5486 33.8284 57.4741C33.4071 58.5659 33.0483 59.6162 32.7336 60.6457L32.679 60.8173C30.1046 69.2091 30.8587 75.516 33.6333 79.9718C33.6474 79.9996 33.663 80.0265 33.6801 80.0524C34.0117 80.5819 34.3729 81.0922 34.7619 81.5811L34.8165 81.6201C42.7425 91.1973 61.434 89.7233 71.8329 80.0602L71.8537 80.1226C71.8267 80.286 71.8102 80.451 71.8043 80.6166C71.8045 81.0787 71.8928 81.5367 72.0644 81.9658C71.6692 82.427 71.3737 82.9649 71.1963 83.5456C71.019 84.1264 70.9636 84.7376 71.0337 85.3407C71.1037 85.9439 71.2978 86.5261 71.6036 87.0508C71.9094 87.5755 72.3203 88.0313 72.8107 88.3897V88.4287C72.1576 89.1068 71.7927 90.0116 71.7927 90.953C71.7927 91.8943 72.1576 92.7991 72.8107 93.4773V112.902C72.0567 113.463 71.4987 114.247 71.2159 115.143C70.933 116.039 70.9398 117.001 71.2352 117.893C71.5306 118.784 72.0996 119.561 72.8614 120.111C73.6232 120.661 74.539 120.957 75.4786 120.957C76.4183 120.957 77.3341 120.661 78.0959 120.111C78.8577 119.561 79.4267 118.784 79.7221 117.893C80.0175 117.001 80.0243 116.039 79.7414 115.143C79.4586 114.247 78.9006 113.463 78.1466 112.902V93.4643C78.7951 92.7869 79.1571 91.8854 79.1571 90.9478C79.1571 90.0101 78.7951 89.1087 78.1466 88.4313V88.3897C78.6344 88.0303 79.0431 87.5745 79.3472 87.0506C79.6514 86.5267 79.8446 85.9459 79.9148 85.3442C79.9851 84.7426 79.9308 84.1329 79.7555 83.5531C79.5801 82.9732 79.2874 82.4356 78.8956 81.9736C79.0648 81.5438 79.1529 81.0863 79.1556 80.6244C79.15 80.4604 79.1326 80.2971 79.1036 80.1356L79.127 80.068C89.5285 89.7337 108.228 91.2077 116.149 81.6279C116.149 81.6149 116.18 81.6071 116.195 81.5941C116.578 81.1169 116.932 80.6168 117.254 80.0966L117.347 79.9562C117.678 79.419 117.977 78.8625 118.242 78.2898C118.242 78.2664 118.263 78.2378 118.276 78.2119C118.545 77.62 118.777 77.0122 118.973 76.3921C118.973 76.3609 118.993 76.3349 119.001 76.3037C119.211 75.6272 119.38 74.9388 119.508 74.2421V74.1693C120.169 69.6899 119.745 65.1174 118.273 60.8355" fill="#C3021B"/>
<path d="M308.626 25.4979C308.682 25.8216 308.711 26.1495 308.712 26.478V28.0378C308.22 29.1482 307.527 30.1582 306.668 31.017C305.562 32.1327 304.265 33.0406 302.838 33.6973C301.421 34.3507 300.003 35.0171 298.583 35.6965C297.183 36.367 295.832 37.1349 294.54 37.9946C293.231 38.8821 292.163 40.0809 291.432 41.4834C291.383 41.526 291.342 41.578 291.312 41.6365C291.283 41.6949 291.265 41.7587 291.261 41.824C291.635 42.3753 292.062 42.8882 292.538 43.3552C293.784 44.5468 295.153 45.603 296.623 46.506C298.107 47.418 299.674 48.1866 301.303 48.8015C301.437 48.8929 301.548 49.0129 301.629 49.1528C301.71 49.2927 301.759 49.4489 301.771 49.6101C301.834 49.877 301.876 50.1481 301.899 50.4212C302.23 51.6813 302.486 52.96 302.666 54.2505C302.78 54.929 302.864 55.5972 302.926 56.2497C302.988 56.9022 303.04 57.5677 303.095 58.2488V59.0989C303.096 59.3128 303.083 59.5266 303.053 59.7385C303.025 59.9387 302.983 59.9984 302.926 59.9517C301.849 59.4976 300.814 59.0149 299.819 58.5036C298.8 57.9774 297.819 57.3806 296.883 56.7176C296.094 56.1577 295.34 55.55 294.626 54.8978C293.902 54.229 293.233 53.5031 292.626 52.7271C291.915 51.8593 291.327 50.8969 290.881 49.8674C290.441 48.8336 290.086 47.766 289.818 46.675C289.367 44.9398 289.026 43.1781 288.796 41.4002C288.568 39.6216 288.454 37.8302 288.455 36.037C288.399 35.4708 288.413 34.8997 288.497 34.3368C288.582 33.7701 288.684 33.2008 288.796 32.634C289.219 30.9322 290.137 29.3941 291.435 28.2146C292.505 27.0844 293.775 26.1608 295.18 25.4901L299.436 23.4493C300.83 22.7823 302.181 22.0286 303.48 21.1928C304.793 20.3312 305.862 19.1469 306.585 17.7534C306.637 17.7049 306.68 17.6477 306.712 17.5844C306.747 17.5222 306.792 17.466 306.845 17.418C306.845 17.3071 306.873 17.2369 306.931 17.2074C306.985 17.1788 307.042 17.2204 307.1 17.3348C307.149 17.4303 307.192 17.5294 307.227 17.6312C307.264 17.7333 307.306 17.8331 307.354 17.9302C307.527 18.4425 307.655 18.9687 307.737 19.503C307.823 20.0437 307.924 20.5974 308.036 21.1642C308.15 21.9025 308.264 22.6252 308.376 23.3323C308.491 24.042 308.577 24.7674 308.636 25.5031" fill="#FFAF00"/>
</g>
<path d="M334.586 81.8333H338.112V90.9322C338.112 94.4574 336.552 95.7286 334.092 95.7286C331.632 95.7286 330.071 94.4574 330.071 90.9322V64.2749C330.071 60.7497 331.632 59.4083 334.092 59.4083C336.552 59.4083 338.112 60.7471 338.112 64.2749V69.5653H345.45V64.7689C345.45 56.871 341.5 52.3579 333.881 52.3579C326.262 52.3579 322.312 56.8684 322.312 64.7689V90.4383C322.312 98.3361 326.262 102.849 333.881 102.849C341.5 102.849 345.45 98.3361 345.45 90.4383V74.7829H334.586V81.8333ZM374.582 102.285C373.882 100.368 373.593 98.3258 373.734 96.2902V88.6731C373.734 83.5257 372.465 79.8575 368.586 78.2353V78.1079C372.042 76.4857 373.664 73.2413 373.664 68.1641V64.2853C373.664 56.6682 370.208 52.9324 362.165 52.9324H350.464V102.285H358.223V82.1868H360.904C364.43 82.1868 365.983 83.8792 365.983 88.4625V96.22C365.799 98.2675 366.034 100.331 366.672 102.285H374.582ZM361.955 59.9724C364.706 59.9724 365.905 61.5322 365.905 65.0496V69.9163C365.905 73.8652 364.142 75.1338 361.25 75.1338H358.215V59.9724H361.955ZM396.02 52.9194H384.669L376.769 102.285H383.894L385.233 93.3291H394.756L396.098 102.285H403.927L396.02 52.9194ZM389.883 61.6648H390.023L393.692 86.6219H386.221L389.883 61.6648ZM418.227 52.9194H407.435V102.285H414.196V67.3764H414.337L420.011 102.285H427.346L432.565 66.8824H432.706V102.285H440.041V52.9194H429.25L424.031 87.9685H423.88L418.227 52.9194Z" fill="#282828"/>
<mask id="mask1_89_244" style="mask-type:luminance" maskUnits="userSpaceOnUse" x="0" y="0" width="490" height="159">
<path d="M490 0H0V159H490V0Z" fill="white"/>
</mask>
<g mask="url(#mask1_89_244)">
<path d="M204.13 114.954V114.907C204.13 114.876 204.099 114.863 204.039 114.863C204.051 114.861 204.063 114.862 204.075 114.866C204.086 114.87 204.097 114.876 204.106 114.885C204.115 114.893 204.121 114.904 204.125 114.915C204.13 114.927 204.131 114.941 204.13 114.954Z" fill="#FFAF00"/>
<path d="M204.665 115.575L204.754 115.663C204.73 115.637 204.694 115.603 204.665 115.575Z" fill="#FFAF00"/>
<path d="M205.313 116.386C205.383 116.49 205.417 116.532 205.42 116.521C205.422 116.511 205.394 116.49 205.381 116.469C205.368 116.448 205.336 116.417 205.313 116.386Z" fill="#FFAF00"/>
<path d="M486.653 122.352C480.567 117.654 473.506 114.378 465.988 112.765C458.016 111.096 449.713 112.18 442.436 115.84C439.776 117.046 437.178 118.44 431.608 121.603C425.555 125.053 421.412 127.247 416.661 129.517C406.271 134.776 395.143 138.432 383.657 140.36C382.266 140.555 379.661 140.841 379.237 140.841H379.042C379.216 141.135 375.687 141.338 375.526 140.979H374.052C367.347 140.894 360.688 139.86 354.273 137.909C342.027 133.985 330.757 127.5 321.212 118.884C318.299 116.337 313.876 112.018 311.395 109.31C309.731 107.49 305.578 103.19 303.769 101.25C304.137 100.978 304.461 100.649 304.728 100.276C305.406 99.3054 305.932 98.2377 306.288 97.1091C306.758 95.5908 307.028 94.0178 307.092 92.4297C307.149 90.8543 307.179 89.2945 307.18 87.7503C307.18 86.3828 307.136 84.9859 307.048 83.5595C306.959 82.1332 306.892 80.7337 306.845 79.361C306.784 77.9347 306.769 76.5074 306.801 75.0793C306.832 73.6512 306.847 72.224 306.845 70.7976C306.784 69.191 306.769 67.6 306.801 66.0246C306.832 64.4492 306.817 62.8582 306.756 61.2515H315.322C315.44 61.2515 315.38 60.9838 315.143 60.4482L314.695 59.5565C314.387 58.9438 314.045 58.3484 313.671 57.7732C313.282 57.177 312.911 56.612 312.555 56.0781C312.136 55.482 311.734 54.9014 311.351 54.3364C310.964 53.7722 310.571 53.2237 310.147 52.6881C309.939 52.4621 309.744 52.2233 309.565 51.9732C309.305 51.6171 309.045 51.4377 308.808 51.4377H300.687C300.344 51.1913 300.017 50.9239 299.707 50.637C299.408 50.4576 299.155 50.2938 298.947 50.1456C298.764 50.0123 298.57 49.8932 298.368 49.7895C298.191 49.6985 298.108 49.6855 298.108 49.7427C298.166 50.0224 298.196 50.3071 298.199 50.5928V51.4377H284.544C284.068 51.0815 283.831 50.9931 283.831 51.1777C283.8 51.2129 283.776 51.254 283.76 51.2986C283.744 51.3432 283.738 51.3905 283.74 51.4377H249.192C248.849 51.1905 248.52 50.9231 248.209 50.637C247.912 50.4637 247.66 50.2999 247.452 50.1456C247.268 50.0129 247.074 49.8938 246.872 49.7895C246.693 49.6985 246.612 49.6855 246.612 49.7427C246.67 50.0224 246.699 50.3072 246.701 50.5928V51.4377H231.257C231.221 51.4377 231.208 51.4741 231.202 51.5287H229.554C229.475 51.479 229.386 51.4479 229.294 51.4377H162.906C162.789 51.4377 162.849 51.7367 163.085 52.332C163.205 52.5686 163.345 52.8363 163.53 53.1327C163.828 53.7289 164.156 54.3242 164.513 54.9187C164.87 55.5131 165.257 56.1076 165.673 56.7021C166.392 57.8609 167.198 58.9637 168.083 60.0011C168.29 60.2285 168.483 60.4672 168.663 60.716C168.923 61.0722 169.183 61.2515 169.423 61.2515H179.057C177.034 62.262 175.086 63.3322 173.214 64.4622C171.342 65.5922 169.482 66.8088 167.636 68.1121C167.34 68.3513 167.043 68.5749 166.744 68.7803C166.445 68.9856 166.149 69.2144 165.852 69.451C165.795 69.5108 165.808 69.6278 165.896 69.8071C165.989 69.9923 166.093 70.1712 166.208 70.3427C166.328 70.516 166.432 70.6798 166.521 70.834C166.609 70.9822 166.656 71.0264 166.656 70.9666C167.549 72.2162 168.415 73.3167 169.256 74.2682C169.731 74.8038 170.192 75.3384 170.64 75.8722C171.087 76.406 171.547 76.9121 172.02 77.3905C172.212 77.6557 172.438 77.8951 172.691 78.1028C173.076 78.4615 173.331 78.5811 173.448 78.4615C175.235 77.0941 177.065 75.815 178.937 74.6244C180.81 73.4337 182.728 72.3072 184.692 71.2448C186.599 70.2344 188.577 69.2976 190.626 68.4345C192.675 67.5714 194.742 66.8132 196.828 66.1598C197.701 65.8677 198.596 65.6443 199.504 65.4916C200.418 65.3428 201.346 65.2975 202.271 65.3565C201.918 67.0723 201.187 68.6878 200.13 70.0853C199.299 71.1535 198.339 72.1142 197.27 72.945C196.199 73.7803 195.098 74.5533 193.968 75.2639C191.289 76.997 188.597 78.7068 185.891 80.3931C183.185 82.0794 180.463 83.7892 177.726 85.5223L168.364 91.4106C168.307 91.4695 168.323 91.5891 168.411 91.7694C168.504 91.9492 168.608 92.1229 168.723 92.2893C168.843 92.4687 168.983 92.7079 169.168 93.0042C169.521 93.5916 169.91 94.1576 170.33 94.6992C170.746 95.2348 171.191 95.7677 171.669 96.3058L173.05 97.8657C173.511 98.3862 174.003 98.8777 174.524 99.3371L174.837 99.6491C174.925 99.7374 175.026 99.844 175.149 99.961C175.227 100.103 175.345 100.22 175.487 100.299C175.628 100.378 175.79 100.416 175.952 100.408C177.071 100.112 178.227 99.9766 179.385 100.005C180.546 100.036 181.699 100.201 182.822 100.497C184.715 100.97 186.542 101.675 188.262 102.595C189.996 103.517 191.662 104.512 193.26 105.582C193.676 105.88 194.064 106.147 194.423 106.385C194.776 106.624 195.135 106.892 195.491 107.188C195.549 107.188 195.58 107.204 195.58 107.232C195.58 107.261 195.611 107.277 195.671 107.277C195.766 107.323 195.853 107.384 195.931 107.456C196.007 107.529 196.095 107.589 196.191 107.633C196.368 107.812 196.547 107.976 196.724 108.124C196.901 108.272 197.111 108.436 197.351 108.615C197.656 108.921 197.984 109.204 198.331 109.463C198.69 109.723 199.046 110.011 199.402 110.31C199.749 110.585 200.076 110.883 200.383 111.202C200.474 111.237 200.552 111.298 200.606 111.379C200.622 111.407 200.644 111.431 200.669 111.452C200.627 111.438 200.59 111.413 200.562 111.379L200.822 111.639V111.548L200.911 111.639C201.207 111.935 201.537 112.247 201.893 112.575C202.25 112.902 202.575 113.212 202.874 113.511C202.874 113.57 202.934 113.659 203.053 113.771L203.409 114.127L203.766 114.486C203.802 114.576 203.864 114.653 203.945 114.706C203.961 114.706 203.979 114.735 203.995 114.745C204.016 114.774 204.029 114.807 204.034 114.842H204.13V114.907C204.13 114.907 204.151 114.907 204.158 114.92C204.166 114.933 204.158 114.951 204.174 114.951C204.19 114.951 204.218 114.979 204.218 115.039L204.351 115.174L204.486 115.31C204.486 115.369 204.486 115.401 204.53 115.401C204.574 115.401 204.574 115.429 204.574 115.489L204.663 115.575L204.582 115.416C204.615 115.445 204.639 115.481 204.652 115.523C204.652 115.551 204.684 115.596 204.741 115.653L204.824 115.731C204.855 115.765 204.881 115.796 204.923 115.835C204.923 115.874 204.939 115.879 204.952 115.895C204.884 115.814 204.822 115.736 204.743 115.655L204.962 115.915C204.993 115.915 205.009 115.944 205.009 116.004C205.114 116.116 205.211 116.237 205.297 116.365L205.152 116.142L205.186 116.183C205.283 116.269 205.359 116.376 205.409 116.495C205.502 116.636 205.608 116.768 205.724 116.89C205.792 117.049 205.879 117.199 205.984 117.337C206.103 117.514 206.244 117.707 206.384 117.917C206.525 118.128 206.668 118.317 206.787 118.497C206.878 118.693 206.998 118.873 207.144 119.032C207.325 119.451 207.566 119.842 207.859 120.192C208.095 120.608 208.317 121.009 208.527 121.396C208.754 121.812 209.008 122.214 209.286 122.599C209.406 122.836 209.523 123.059 209.643 123.27C209.762 123.48 209.879 123.699 210.001 123.938C210.059 124.058 210.118 124.175 210.178 124.294L210.355 124.65C210.415 124.71 210.446 124.754 210.446 124.786C210.446 124.817 210.475 124.858 210.535 124.918C210.531 124.967 210.547 125.016 210.579 125.053C210.595 125.071 210.608 125.092 210.616 125.115C210.624 125.137 210.628 125.162 210.626 125.186C210.573 125.141 210.54 125.078 210.535 125.009C210.774 125.485 211.01 126.018 211.25 126.613L211.606 127.328L211.962 128.04C212.757 130.129 213.267 132.315 213.481 134.54C213.599 136.434 213.326 138.332 212.677 140.116C212.038 141.907 210.89 143.473 209.375 144.621C209.315 144.678 209.315 144.798 209.375 144.977C209.437 145.167 209.525 145.347 209.635 145.513C209.754 145.69 209.931 145.929 210.17 146.225C210.522 146.814 210.909 147.38 211.33 147.92C211.746 148.456 212.193 148.991 212.669 149.527C213.143 150.062 213.606 150.598 214.053 151.133C214.504 151.675 214.996 152.182 215.525 152.649C215.644 152.769 215.881 152.99 216.24 153.317C216.599 153.645 216.83 153.749 216.952 153.629C217.93 152.894 218.749 151.969 219.36 150.91C219.958 149.866 220.397 148.738 220.66 147.564C220.932 146.378 221.057 145.162 221.032 143.945C221.004 142.717 220.87 141.493 220.632 140.287C220.341 138.826 219.877 137.404 219.248 136.053C218.624 134.715 217.985 133.361 217.329 131.992C215.967 129.441 214.514 127.002 212.971 124.676C210.886 121.463 208.607 118.38 206.145 115.445C203.675 112.498 201.102 109.659 198.427 106.926C196.461 104.967 194.407 103.094 192.264 101.305C190.124 99.5226 187.889 97.8556 185.571 96.311C185.118 95.9094 184.607 95.5782 184.055 95.3284C185.539 94.3769 187.026 93.4401 188.517 92.5181C190.008 91.5961 191.495 90.6593 192.979 89.7078C194.345 88.817 195.713 87.94 197.083 87.0769C198.452 86.2138 199.82 85.3663 201.186 84.5344C201.959 84.0595 202.718 83.5535 203.461 83.0162C204.193 82.493 204.894 81.928 205.56 81.3238C205.68 81.4445 205.814 81.5493 205.96 81.6358C206.109 81.7242 206.241 81.7995 206.364 81.8593C207.567 82.5793 208.876 83.1056 210.243 83.4192C211.631 83.7467 213.057 83.8814 214.482 83.8195C215.434 83.7799 216.381 83.6564 217.311 83.4503C217.35 85.0634 217.63 86.6616 218.141 88.1922C218.437 89.0258 218.734 89.8439 219.033 90.6463C219.333 91.4584 219.691 92.2481 220.104 93.0094C221.048 95.198 222.151 97.3146 223.404 99.3423C223.805 99.9711 224.239 100.579 224.704 101.162C225.179 101.756 225.735 102.281 226.355 102.722C228.081 103.805 230.144 104.218 232.154 103.881C233.342 103.704 234.509 103.405 235.636 102.99C236.748 102.58 237.822 102.073 238.845 101.474C240.893 100.311 242.828 98.9604 244.626 97.4393L245.627 98.4402C246.478 99.3484 247.403 100.184 248.393 100.939L255.087 108.163L255.443 107.807L250.266 102.088H250.357C250.938 101.995 251.494 101.786 251.992 101.473C252.49 101.16 252.92 100.75 253.256 100.268C253.934 99.2975 254.46 98.2298 254.816 97.1014C255.285 95.5827 255.555 94.0098 255.62 92.4219C255.677 90.8465 255.707 89.2867 255.708 87.7424C255.708 86.375 255.663 84.9781 255.573 83.5517C255.483 82.1254 255.411 80.7285 255.357 79.361C255.297 77.9347 255.283 76.5074 255.316 75.0793C255.349 73.6512 255.362 72.224 255.357 70.7976C255.297 69.191 255.283 67.6 255.316 66.0246C255.342 64.4786 255.327 62.9188 255.271 61.3451H266.06C266.008 62.0579 265.995 62.7731 266.021 63.4873C266.054 64.2344 266.128 64.9791 266.245 65.7178C266.363 66.7235 266.542 67.721 266.781 68.7049C267.019 69.6897 267.197 70.6881 267.314 71.6945C267.43 72.1478 267.505 72.6107 267.537 73.0776C267.569 73.5221 267.613 73.9849 267.673 74.458C267.73 75.5291 267.745 76.6002 267.717 77.6712C267.686 78.7473 267.582 79.82 267.405 80.8818C267.211 81.7543 266.896 82.5952 266.469 83.3802C266.263 83.78 265.965 84.1256 265.601 84.3889C265.236 84.6522 264.815 84.8259 264.37 84.8958C264.365 85.185 264.457 85.4677 264.63 85.6991C264.806 85.993 265 86.276 265.21 86.5466C265.418 86.8066 265.642 87.0977 265.878 87.3941C267.189 89.1272 268.483 90.8075 269.761 92.4349C271.038 94.0623 272.392 95.6525 273.82 97.2053C274.831 98.2192 275.827 99.2305 276.81 100.239C277.804 101.26 278.892 102.185 280.061 103C281.152 103.849 282.443 104.403 283.811 104.607C284.348 104.633 284.885 104.552 285.391 104.368C285.896 104.184 286.36 103.901 286.754 103.536C287.071 103.341 287.356 103.1 287.602 102.821C287.871 102.524 288.124 102.227 288.361 101.929C288.658 101.516 288.926 101.126 289.162 100.77C289.418 100.379 289.629 99.9603 289.789 99.5217C290.2 98.6983 290.5 97.8241 290.681 96.922C290.854 96.0311 291.003 95.1646 291.128 94.3223C291.421 92.4644 291.555 90.585 291.529 88.7043C291.497 86.862 291.423 85.018 291.305 83.1722C291.185 81.2657 291.067 79.3333 290.949 77.3749C290.831 75.4164 290.8 73.4831 290.858 71.5749C290.973 68.1052 291.331 64.6479 291.929 61.2281H298.264V69.347C298.264 70.5351 298.308 71.7413 298.396 72.958C298.485 74.1746 298.56 75.3835 298.62 76.5716C298.738 78.1782 298.782 79.7986 298.752 81.433C298.726 83.0312 298.592 84.6258 298.352 86.206C298.232 86.9859 298.071 87.7814 297.86 88.6133C297.659 89.4348 297.36 90.229 296.969 90.9791C296.598 91.7017 296.1 92.351 295.497 92.8951C294.865 93.4497 294.093 93.8202 293.266 93.9661C293.206 93.9661 293.237 94.0571 293.354 94.2261L293.713 94.7616C293.833 94.941 294.009 95.1776 294.233 95.4765C294.711 96.0121 295.187 96.5173 295.661 96.9922L297.088 98.4194C297.939 99.3276 298.865 100.163 299.855 100.918L306.548 108.142L306.905 107.786L305.893 106.668L307.396 108.103C308.889 109.52 311.229 111.743 312.597 113.069C318.375 118.787 324.451 124.195 330.8 129.273C336.672 133.957 343.143 137.836 350.042 140.807C359.149 144.501 368.848 146.518 378.672 146.761C380.753 146.852 386.076 146.795 387.514 146.67C398.277 145.705 410.051 142.034 424.078 135.27C428.015 133.372 431.052 131.753 435.699 129.085C442.184 125.363 443.978 124.375 446.8 122.981C452.165 120.044 458.093 118.28 464.191 117.805C467.097 117.717 470.005 117.841 472.892 118.177C478.727 118.843 484.268 121.09 488.918 124.676C489.244 124.939 489.592 125.173 489.958 125.376C488.947 124.255 487.829 123.236 486.619 122.331M238.751 87.4331C237.668 88.3091 236.539 89.1283 235.371 89.8872C234.341 90.5515 233.268 91.1473 232.159 91.6706C231.034 92.2028 229.871 92.6503 228.68 93.0094C227.694 93.3028 226.674 93.4679 225.645 93.5008C224.604 93.5246 223.569 93.3261 222.611 92.9184C222.611 92.5051 222.626 92.1177 222.658 91.7616C222.689 91.4054 222.73 91.0181 222.79 90.5995C223.25 88.4821 224.158 86.4877 225.453 84.7502C226.754 83.0013 228.393 81.5304 230.271 80.4243C232.238 79.2928 234.357 78.4514 236.564 77.926C238.768 77.394 241.033 77.1537 243.299 77.2111C244.614 77.1993 245.925 77.3575 247.2 77.6816C247.216 77.9832 247.234 78.2822 247.244 78.5811C247.182 78.6617 247.117 78.7553 247.057 78.8177C246.282 79.8888 245.464 80.9148 244.602 81.8957C243.741 82.8767 242.833 83.8134 241.88 84.706C240.869 85.6575 239.829 86.5639 238.759 87.4253M246.776 69.4614C246.742 69.4328 246.719 69.3964 246.685 69.3704C245.4 68.2508 243.848 67.4824 242.179 67.1399C240.494 66.7838 238.772 66.6337 237.051 66.6927C235.123 66.754 233.207 67.0084 231.33 67.4518C229.439 67.8923 227.611 68.5665 225.887 69.4588C224.212 70.3001 222.689 71.4151 221.381 72.7578L221.311 72.8384C221.097 72.6018 220.876 72.3834 220.668 72.1339C220.224 71.5983 219.761 71.094 219.285 70.6182C219.165 70.4987 218.913 70.2621 218.526 69.9033C218.138 69.5446 217.917 69.4276 217.857 69.5472C216.914 70.8505 215.696 71.9314 214.289 72.7136C212.866 73.5147 211.331 74.1008 209.736 74.4528C209.852 74.062 209.913 73.6568 209.916 73.2491V72.0455C209.83 70.654 209.401 69.3054 208.667 68.1199C208.012 66.991 207.266 65.9173 206.436 64.9093C205.602 63.8989 204.736 62.8876 203.836 61.8755C203.739 61.7804 203.652 61.6759 203.576 61.5635C203.498 61.4524 203.411 61.3481 203.316 61.2515H217.782C217.861 61.2988 217.95 61.3289 218.042 61.3399H246.776V69.4614ZM282.778 83.9547C282.689 85.5307 282.466 87.0962 282.11 88.6341C281.835 89.9385 281.385 91.1996 280.771 92.3829C280.666 92.487 280.578 92.6073 280.511 92.7391H280.422C280.122 93.2186 279.793 93.6804 279.439 94.1221C279.089 94.5614 278.667 94.9384 278.191 95.2374C277.811 95.4632 277.384 95.6 276.943 95.6377C276.526 95.6685 276.106 95.6537 275.692 95.5935C275.394 95.4739 275.126 95.37 274.889 95.2816C274.646 95.1907 274.408 95.0866 274.176 94.9696C274.068 94.8574 273.928 94.7796 273.776 94.746C273.622 94.7147 273.481 94.6367 273.373 94.5225L273.113 94.2625H273.022C272.943 94.2281 272.868 94.1836 272.801 94.1299C272.769 94.1013 272.845 94.1455 273.022 94.2625C272.926 94.166 272.822 94.0789 272.71 94.0025C272.597 93.9263 272.493 93.8393 272.398 93.7425C272.996 93.562 273.515 93.1846 273.872 92.6715C274.263 92.1284 274.564 91.5263 274.764 90.8881C274.975 90.2196 275.124 89.5329 275.209 88.8369C275.293 88.2156 275.338 87.5895 275.344 86.9625C275.401 86.1614 275.416 85.3579 275.388 84.5552C275.355 83.7495 275.28 82.946 275.164 82.1479C275.108 81.3392 275.004 80.5344 274.852 79.738C274.704 78.9581 274.569 78.1626 274.452 77.3281C274.332 76.5568 274.214 75.7994 274.096 75.0559C273.973 74.3124 273.856 73.5247 273.737 72.6902C273.618 70.8686 273.738 69.0392 274.096 67.249C274.269 66.3565 274.477 65.4639 274.72 64.5714C274.962 63.6788 275.17 62.7871 275.344 61.8963C275.393 61.6842 275.36 61.4616 275.253 61.2723H282.393C282.331 62.2238 282.289 63.1441 282.258 64.0384C282.227 64.9327 282.243 65.8582 282.302 66.8019C282.302 68.8817 282.389 70.9614 282.562 73.0412C282.736 75.1209 282.854 77.2007 282.916 79.2804C282.916 80.8299 282.872 82.3897 282.784 83.9599" fill="#FFAF00"/>
</g>
</svg>
