<svg width="283" height="93" viewBox="0 0 283 93" fill="none" xmlns="http://www.w3.org/2000/svg">
<g clip-path="url(#clip0_89_144)">
<mask id="mask0_89_144" style="mask-type:luminance" maskUnits="userSpaceOnUse" x="0" y="0" width="283" height="93">
<path d="M283 0.500732H0V92.5007H283V0.500732Z" fill="white"/>
</mask>
<g mask="url(#mask0_89_144)">
<path fill-rule="evenodd" clip-rule="evenodd" d="M32.9732 72.4028C32.3504 72.2353 31.7346 72.0488 31.1259 71.8432C29.7944 71.3734 28.4907 70.828 27.2211 70.2096C25.6199 69.401 24.0936 68.4516 22.6599 67.3727L22.6374 67.3576C16.8791 63.0193 12.8587 56.7622 11.3018 49.7157C9.74501 42.6692 10.7543 35.2973 14.1475 28.9307C11.9593 32.5182 10.5158 36.5108 9.90294 40.6698C9.29012 44.8287 9.52066 49.0687 10.5808 53.1365C11.6409 57.2042 13.5088 61.0161 16.073 64.3445C18.6371 67.6729 21.8448 70.4494 25.5045 72.5081L25.5315 72.5232C26.8897 73.286 28.3035 73.9453 29.7607 74.4952C29.9394 74.5629 30.1196 74.6276 30.2984 74.6907C38.5211 77.7538 47.5561 77.831 55.8299 74.9089C56.2233 74.781 56.6168 74.6441 57.0133 74.4952C58.8781 73.7913 60.6706 72.9088 62.3659 71.8598L62.3794 71.8523C69.4046 67.507 74.4264 60.5528 76.3471 52.5099C78.2679 44.4669 76.9313 35.9895 72.6296 28.9307C76.0008 35.2525 77.0218 42.5677 75.5107 49.5731C73.9996 56.5784 70.0546 62.8191 64.3784 67.1831L64.3679 67.1907C63.3164 67.9998 62.2126 68.7385 61.0638 69.4019C58.9684 70.5518 56.7664 71.4949 54.4887 72.2178C54.2289 72.2945 53.9676 72.3682 53.7047 72.4374C52.7405 72.7262 51.7673 72.9729 50.7851 73.1775C50.2425 73.2898 49.6983 73.3901 49.1526 73.4783C46.0881 73.9775 42.9721 74.0787 39.8817 73.7792C39.742 73.7671 39.6038 73.7521 39.4642 73.7371H39.4176C38.2522 73.6122 37.0897 73.4362 35.9378 73.194V73.1775C34.9366 72.9669 33.9479 72.7162 32.9717 72.4254" fill="#FFAF00"/>
<path fill-rule="evenodd" clip-rule="evenodd" d="M43.7204 80.7302C44.5958 81.4422 45.3005 82.3419 45.7827 83.3628C46.2649 84.3838 46.5124 85.5001 46.5067 86.6296C46.5011 87.759 46.2426 88.8728 45.7503 89.8889C45.2579 90.905 44.5442 91.7976 43.6618 92.5008C42.787 91.7885 42.0827 90.8887 41.6008 89.8678C41.1189 88.8469 40.8717 87.7307 40.8773 86.6015C40.8829 85.4722 41.1412 84.3586 41.6333 83.3425C42.1253 82.3265 42.8385 81.4338 43.7204 80.7302Z" fill="#FFAF00"/>
<path fill-rule="evenodd" clip-rule="evenodd" d="M45.3334 79.7735C46.1799 79.6809 47.0363 79.7796 47.8396 80.0623C48.643 80.345 49.3728 80.8045 49.9754 81.407C50.578 82.0096 51.038 82.7398 51.3216 83.5439C51.6052 84.3481 51.7052 85.2057 51.6142 86.0536C50.7678 86.1459 49.9115 86.047 49.1083 85.7642C48.3051 85.4814 47.5753 85.0219 46.9728 84.4194C46.3703 83.8169 45.9102 83.0868 45.6265 82.2828C45.3428 81.4788 45.2427 80.6214 45.3334 79.7735Z" fill="#FFAF00"/>
<path fill-rule="evenodd" clip-rule="evenodd" d="M37.6499 80.9633C38.3126 80.428 39.0869 80.0486 39.9157 79.8534C40.7444 79.6581 41.6064 79.6519 42.4378 79.8351C42.4383 80.6876 42.248 81.5294 41.8809 82.2985C41.5137 83.0676 40.9791 83.7444 40.3163 84.2793C39.6535 84.8141 38.8794 85.1933 38.051 85.3889C37.2225 85.5846 36.3608 85.5917 35.5293 85.4098C35.5277 84.5566 35.7178 83.7139 36.0854 82.9442C36.453 82.1745 36.9887 81.4975 37.6529 80.9633" fill="#FFAF00"/>
<path fill-rule="evenodd" clip-rule="evenodd" d="M21.3353 72.2718C21.5548 73.2937 21.5426 74.352 21.2996 75.3685C21.0567 76.3851 20.5891 77.3342 19.9314 78.1458C19.2737 78.9574 18.4426 79.6109 17.4993 80.0581C16.556 80.5054 15.5245 80.735 14.4809 80.7301C14.2617 79.7082 14.2741 78.65 14.5172 77.6336C14.7603 76.6171 15.2279 75.6682 15.8855 74.8567C16.5432 74.0451 17.3742 73.3916 18.3173 72.9443C19.2605 72.497 20.2918 72.2672 21.3353 72.2718Z" fill="#FFAF00"/>
<path fill-rule="evenodd" clip-rule="evenodd" d="M23.0564 72.5142C23.721 72.9383 24.2822 73.5064 24.6986 74.1766C25.115 74.8467 25.3761 75.6019 25.4625 76.3865C25.549 77.171 25.4587 77.965 25.1982 78.71C24.9377 79.455 24.5138 80.132 23.9575 80.6911C23.2929 80.267 22.7317 79.6989 22.3153 79.0287C21.8989 78.3586 21.6379 77.6034 21.5514 76.8188C21.4649 76.0343 21.5553 75.2403 21.8157 74.4953C22.0762 73.7503 22.5002 73.0733 23.0564 72.5142Z" fill="#FFAF00"/>
<path fill-rule="evenodd" clip-rule="evenodd" d="M16.8207 68.916C17.6087 68.9144 18.387 69.0902 19.098 69.4306C19.809 69.7709 20.4345 70.2669 20.9283 70.8821C20.4351 71.4977 19.8103 71.9947 19.0999 72.3365C18.3896 72.6784 17.6117 72.8562 16.8236 72.8571C16.0355 72.858 15.2573 72.6818 14.5462 72.3416C13.8351 72.0013 13.2092 71.5056 12.7147 70.8911C13.2074 70.2745 13.8322 69.7768 14.543 69.435C15.2538 69.0931 16.0322 68.9157 16.8207 68.916Z" fill="#FFAF00"/>
<path fill-rule="evenodd" clip-rule="evenodd" d="M17.9877 52.1242C18.6854 51.7444 19.4593 51.5263 20.2524 51.4862C21.0455 51.4461 21.8375 51.585 22.5698 51.8926C22.4272 52.6749 22.1112 53.4153 21.6453 54.0593C21.1794 54.7033 20.5752 55.2345 19.8774 55.6138C19.1795 55.9932 18.4056 56.2111 17.6126 56.2515C16.8195 56.2919 16.0276 56.1537 15.2949 55.8472C15.4365 55.0642 15.752 54.3231 16.2181 53.6787C16.6842 53.0343 17.289 52.503 17.9877 52.1242Z" fill="#FFAF00"/>
<path fill-rule="evenodd" clip-rule="evenodd" d="M18.662 56.6414C19.2355 56.8155 19.7626 57.1163 20.2045 57.5217C20.6464 57.927 20.9918 58.4266 21.2152 58.9835C20.7201 59.3225 20.1554 59.5459 19.5626 59.6373C18.9699 59.7287 18.3643 59.6858 17.7903 59.5117C17.2164 59.3376 16.6887 59.0369 16.2462 58.6315C15.8036 58.2261 15.4575 57.7265 15.2333 57.1694C15.7283 56.83 16.2932 56.6063 16.8861 56.5149C17.4791 56.4235 18.085 56.4668 18.659 56.6414" fill="#FFAF00"/>
<path fill-rule="evenodd" clip-rule="evenodd" d="M15.4691 49.1941C15.8587 49.6505 16.1413 50.1886 16.296 50.7688C16.4507 51.349 16.4735 51.9566 16.3629 52.5468C16.2522 53.137 16.0109 53.6949 15.6566 54.1794C15.3023 54.6639 14.8441 55.0626 14.3156 55.3464C13.9257 54.8901 13.6429 54.352 13.488 53.7717C13.3332 53.1915 13.3103 52.5838 13.4209 51.9935C13.5316 51.4032 13.7731 50.8453 14.1275 50.3608C14.482 49.8763 14.9404 49.4776 15.4691 49.1941Z" fill="#FFAF00"/>
<path fill-rule="evenodd" clip-rule="evenodd" d="M7.80963 42.7093C7.29777 43.2603 6.669 43.6892 5.96965 43.9645C5.27029 44.2397 4.51819 44.3543 3.76875 44.2997C3.01932 44.2452 2.29166 44.0229 1.63941 43.6492C0.987149 43.2756 0.426918 42.7601 0 42.1407C0.511857 41.5898 1.14063 41.1608 1.83998 40.8856C2.53934 40.6103 3.29144 40.4958 4.04088 40.5503C4.79031 40.6049 5.51797 40.8272 6.17022 41.2009C6.82248 41.5745 7.38271 42.09 7.80963 42.7093Z" fill="#FFAF00"/>
<path fill-rule="evenodd" clip-rule="evenodd" d="M8.37134 43.8225C8.3948 44.39 8.2909 44.9555 8.06727 45.4775C7.84364 45.9994 7.50599 46.4645 7.07916 46.8384C6.65234 47.2124 6.14721 47.4857 5.60097 47.6382C5.05473 47.7908 4.48129 47.8187 3.92285 47.7199C3.89967 47.1525 4.00376 46.5871 4.22748 46.0653C4.4512 45.5435 4.78886 45.0786 5.21561 44.7047C5.64237 44.3308 6.14737 44.0574 6.69349 43.9048C7.2396 43.7521 7.81294 43.724 8.37134 43.8225Z" fill="#FFAF00"/>
<path fill-rule="evenodd" clip-rule="evenodd" d="M7.92525 38.6585C8.25088 39.1234 8.46776 39.6559 8.5598 40.2163C8.65184 40.7767 8.61667 41.3506 8.45691 41.8956C7.89127 41.8573 7.3414 41.6924 6.84776 41.4131C6.35413 41.1339 5.92929 40.7473 5.60451 40.2819C5.27974 39.8165 5.06328 39.284 4.97108 38.7238C4.87888 38.1635 4.91327 37.5896 5.07174 37.0444C5.63765 37.0824 6.18784 37.2471 6.68172 37.5265C7.17559 37.8058 7.60055 38.1927 7.92525 38.6585Z" fill="#FFAF00"/>
<path fill-rule="evenodd" clip-rule="evenodd" d="M13.8922 28.544C13.285 28.4361 12.7098 28.1932 12.2088 27.8331C11.7078 27.473 11.2939 27.005 10.9974 26.4634C10.701 25.9219 10.5296 25.3206 10.496 24.7039C10.4623 24.0872 10.5672 23.4709 10.8028 22.9001C11.41 23.008 11.9852 23.251 12.4862 23.6111C12.9872 23.9711 13.4011 24.4392 13.6976 24.9807C13.994 25.5223 14.1654 26.1236 14.199 26.7402C14.2327 27.3569 14.1278 27.9733 13.8922 28.544Z" fill="#FFAF00"/>
<path fill-rule="evenodd" clip-rule="evenodd" d="M13.3755 29.4329C12.9953 29.7016 12.5598 29.8816 12.101 29.9596C11.6422 30.0376 11.1718 30.0116 10.7244 29.8837C10.277 29.7557 9.86382 29.5289 9.51536 29.22C9.16689 28.9111 8.89196 28.528 8.71075 28.0987C9.09105 27.8294 9.52678 27.649 9.9859 27.5706C10.445 27.4923 10.9158 27.5181 11.3637 27.6461C11.8115 27.7742 12.225 28.0011 12.5737 28.3104C12.9224 28.6196 13.1974 29.0032 13.3785 29.4329" fill="#FFAF00"/>
<path fill-rule="evenodd" clip-rule="evenodd" d="M16.7337 26.8248C16.5574 27.2555 16.287 27.6412 15.9424 27.9536C15.5978 28.266 15.1877 28.4971 14.7422 28.6299C14.516 28.2222 14.3839 27.7689 14.3557 27.3033C14.3276 26.8377 14.404 26.3718 14.5793 25.9397C14.7547 25.5076 15.0245 25.1204 15.369 24.8065C15.7135 24.4927 16.1239 24.2602 16.57 24.1262C16.7967 24.5339 16.9292 24.9873 16.9575 25.4531C16.9859 25.9189 16.9093 26.3851 16.7337 26.8173" fill="#FFAF00"/>
<path fill-rule="evenodd" clip-rule="evenodd" d="M71.4761 74.8441C72.1339 75.6541 72.6013 76.602 72.8436 77.6175C73.0859 78.633 73.0969 79.6902 72.8759 80.7105C71.8348 80.7149 70.8061 80.4854 69.8653 80.039C68.9245 79.5926 68.0956 78.9406 67.4396 78.131C66.7836 77.3214 66.3171 76.3748 66.0746 75.3608C65.832 74.3468 65.8195 73.2913 66.0379 72.2718C67.0795 72.266 68.109 72.4949 69.0503 72.9414C69.9917 73.388 70.8207 74.0408 71.4761 74.8516" fill="#FFAF00"/>
<path fill-rule="evenodd" clip-rule="evenodd" d="M65.8247 76.8012C65.7389 77.5843 65.4784 78.3381 65.0624 79.0067C64.6465 79.6754 64.0857 80.2418 63.4217 80.664C62.8667 80.1061 62.4438 79.4307 62.184 78.6873C61.9242 77.944 61.8343 77.1518 61.9207 76.369C62.0072 75.5863 62.2679 74.8329 62.6836 74.1645C63.0993 73.496 63.6595 72.9295 64.3228 72.5066C64.8789 73.0637 65.3026 73.7389 65.5626 74.4824C65.8226 75.2258 65.9122 76.0183 65.8247 76.8012Z" fill="#FFAF00"/>
<path fill-rule="evenodd" clip-rule="evenodd" d="M74.642 70.8865C74.1488 71.4998 73.5244 71.9944 72.815 72.3339C72.1056 72.6735 71.3291 72.8493 70.5428 72.8484C69.7566 72.8476 68.9805 72.67 68.2718 72.3289C67.5631 71.9878 66.9399 71.4918 66.4479 70.8775C66.9412 70.2642 67.5655 69.7696 68.275 69.43C68.9844 69.0905 69.7609 68.9147 70.5472 68.9155C71.3334 68.9164 72.1095 69.0939 72.8182 69.435C73.5269 69.7761 74.1501 70.2721 74.642 70.8865Z" fill="#FFAF00"/>
<path fill-rule="evenodd" clip-rule="evenodd" d="M71.4641 55.7268C70.7084 56.0433 69.8914 56.1859 69.0733 56.1441C68.2553 56.1024 67.457 55.8774 66.7373 55.4856C66.0176 55.0939 65.3948 54.5454 64.9148 53.8806C64.4348 53.2158 64.1099 52.4516 63.9639 51.6443C64.7192 51.3279 65.5357 51.1851 66.3534 51.2265C67.1711 51.2679 67.9691 51.4924 68.6887 51.8835C69.4083 52.2746 70.0312 52.8224 70.5115 53.4865C70.9918 54.1505 71.3174 54.9141 71.4641 55.7208" fill="#FFAF00"/>
<path fill-rule="evenodd" clip-rule="evenodd" d="M71.5257 57.0914C71.2944 57.6654 70.9375 58.1803 70.4813 58.598C70.0251 59.0158 69.4812 59.3258 68.8896 59.5053C68.2981 59.6848 67.6738 59.7293 67.0629 59.6354C66.4519 59.5414 65.8697 59.3116 65.3591 58.9626C65.5903 58.3883 65.9471 57.8733 66.4032 57.4554C66.8594 57.0375 67.4033 56.7273 67.995 56.5478C68.5866 56.3682 69.211 56.3239 69.822 56.4179C70.433 56.512 71.0152 56.7421 71.5257 57.0914Z" fill="#FFAF00"/>
<path fill-rule="evenodd" clip-rule="evenodd" d="M73.3985 51.7571C73.5138 52.3662 73.4907 52.9934 73.3311 53.5922C73.1715 54.1911 72.8793 54.7464 72.4764 55.2169C71.9313 54.9245 71.4587 54.5135 71.0932 54.014C70.7277 53.5144 70.4788 52.9392 70.3646 52.3306C70.2505 51.7219 70.2741 51.0954 70.4337 50.4971C70.5933 49.8988 70.8849 49.344 71.2869 48.8735C71.8325 49.1653 72.3055 49.5763 72.671 50.0759C73.0365 50.5756 73.2852 51.1512 73.3985 51.7601" fill="#FFAF00"/>
<path fill-rule="evenodd" clip-rule="evenodd" d="M82.0417 40.5522C82.7906 40.4974 83.5422 40.6117 84.2412 40.8866C84.9401 41.1615 85.5686 41.5901 86.0801 42.1406C85.6532 42.76 85.093 43.2754 84.4407 43.6491C83.7885 44.0228 83.0608 44.2451 82.3114 44.2996C81.5619 44.3542 80.8098 44.2396 80.1105 43.9644C79.4111 43.6891 78.7824 43.2602 78.2705 42.7092C78.6969 42.0896 79.2569 41.5741 79.9092 41.2007C80.5615 40.8273 81.2893 40.6056 82.0387 40.5522" fill="#FFAF00"/>
<path fill-rule="evenodd" clip-rule="evenodd" d="M80.8642 44.7085C81.2901 45.0816 81.6272 45.5454 81.8507 46.066C82.0742 46.5866 82.1784 47.1507 82.1558 47.717C81.5977 47.8154 81.0246 47.7873 80.4787 47.6348C79.9328 47.4823 79.428 47.2093 79.0013 46.8357C78.5746 46.4622 78.2369 45.9976 78.013 45.4762C77.789 44.9547 77.6846 44.3897 77.7073 43.8225C78.2655 43.7242 78.8386 43.7525 79.3844 43.9053C79.9302 44.0581 80.4349 44.3315 80.8612 44.7055" fill="#FFAF00"/>
<path fill-rule="evenodd" clip-rule="evenodd" d="M81.0084 37.0535C81.1672 37.5989 81.2017 38.1731 81.1095 38.7337C81.0172 39.2943 80.8005 39.827 80.4754 40.2925C80.1502 40.7581 79.7249 41.1446 79.2307 41.4236C78.7366 41.7026 78.1862 41.867 77.6202 41.9046C77.4623 41.3592 77.4284 40.7853 77.521 40.225C77.6136 39.6648 77.8304 39.1324 78.1554 38.6671C78.4804 38.2017 78.9054 37.8153 79.3991 37.536C79.8928 37.2568 80.4427 37.0919 81.0084 37.0535Z" fill="#FFAF00"/>
<path fill-rule="evenodd" clip-rule="evenodd" d="M73.2904 24.9082C73.5864 24.3665 74.0002 23.8984 74.5011 23.5383C75.002 23.1782 75.5773 22.9354 76.1844 22.8279C76.4201 23.3986 76.525 24.015 76.4913 24.6317C76.4576 25.2483 76.2863 25.8496 75.9898 26.3911C75.6934 26.9327 75.2795 27.4007 74.7785 27.7608C74.2775 28.1209 73.7023 28.3638 73.0951 28.4717C72.859 27.9011 72.7539 27.2845 72.7877 26.6677C72.8215 26.0509 72.9933 25.4496 73.2904 24.9082Z" fill="#FFAF00"/>
<path fill-rule="evenodd" clip-rule="evenodd" d="M75.6258 27.5768C76.0734 27.4485 76.5441 27.4225 77.0031 27.5006C77.4621 27.5787 77.8978 27.7589 78.278 28.0281C78.0969 28.4578 77.8219 28.8414 77.4732 29.1507C77.1245 29.4599 76.711 29.6869 76.2632 29.8149C75.8154 29.9429 75.3446 29.9687 74.8854 29.8904C74.4263 29.8121 73.9906 29.6316 73.6103 29.3624C73.7912 28.9325 74.0662 28.5488 74.4151 28.2398C74.7639 27.9307 75.1777 27.7041 75.6258 27.5768Z" fill="#FFAF00"/>
<path fill-rule="evenodd" clip-rule="evenodd" d="M70.4143 24.0569C70.8601 24.191 71.2701 24.4236 71.6143 24.7374C71.9585 25.0513 72.228 25.4384 72.4031 25.8703C72.5781 26.3023 72.6543 26.768 72.6259 27.2333C72.5975 27.6986 72.4653 28.1516 72.2391 28.559C71.793 28.4254 71.3824 28.1932 71.0378 27.8796C70.6931 27.566 70.4231 27.1789 70.2475 26.7469C70.072 26.3149 69.9955 25.849 70.0236 25.3834C70.0516 24.9179 70.1836 24.4646 70.4098 24.0569" fill="#FFAF00"/>
<path d="M68.3133 35.6996L68.2802 35.5974C68.0955 34.9957 67.8897 34.394 67.6464 33.7637C67.4392 33.2252 67.2139 32.6776 66.9826 32.1271C66.9301 32.0022 66.879 31.8774 66.8324 31.7525C66.6132 31.2431 66.3864 30.7287 66.1521 30.2092C66.0785 30.0483 66.0019 29.8873 65.9298 29.7264C65.7166 29.26 65.4978 28.7927 65.2735 28.3244C65.1879 28.1424 65.1008 27.9619 65.0152 27.7799C64.8064 27.3497 64.5977 26.9165 64.3829 26.4832C64.2958 26.3042 64.2057 26.1237 64.1186 25.9432L63.3421 24.3848C63.2355 24.1697 63.1274 23.9561 63.0207 23.741L62.1061 21.9149C61.9389 21.579 61.7727 21.2435 61.6075 20.9086C61.4798 20.6498 61.3492 20.3896 61.223 20.1309C60.9992 19.6796 60.78 19.2284 60.5607 18.7681L60.2393 18.0957C60.0501 17.694 59.8623 17.2954 59.6791 16.8923C59.579 16.6647 59.4789 16.439 59.3787 16.2154C59.197 15.8123 59.0213 15.4136 58.8501 15.012C58.7765 14.8405 58.6999 14.669 58.6308 14.4991C58.4236 14.0057 58.2233 13.5163 58.0301 13.0309C57.9775 12.8971 57.928 12.7632 57.8799 12.6293C57.6847 12.1058 57.4939 11.5854 57.3242 11.0754C57.3242 11.0514 57.3107 11.0288 57.3017 11.0047C57.1215 10.4552 56.9603 9.91418 56.8181 9.38169C56.8106 9.35762 56.8031 9.33355 56.7971 9.30948C56.3573 7.77588 56.1433 6.18622 56.1618 4.59072C56.1543 4.64789 56.1543 4.70805 56.1468 4.76672C56.117 3.26219 56.5211 1.78098 57.3107 0.500732H57.2702C50.9474 10.1955 59.7407 24.6045 62.6303 34.573C63.7912 38.5336 63.3707 41.2984 62.1001 43.0628C61.7485 43.5545 61.3176 43.984 60.825 44.3339L60.6974 44.4181C60.5105 44.5437 60.3164 44.6582 60.1162 44.7611C60.0501 44.7942 59.987 44.8318 59.9179 44.8634C59.6865 44.9723 59.4488 45.0673 59.206 45.1477C59.0949 45.1838 58.9793 45.2124 58.8651 45.2425C58.7254 45.2816 58.5798 45.3192 58.4341 45.3493C58.2884 45.3793 58.1472 45.4064 58.0016 45.429C57.8859 45.447 57.7673 45.4576 57.6486 45.4696C57.3493 45.5014 57.0485 45.5174 56.7475 45.5177C56.6604 45.5177 56.5748 45.5177 56.4862 45.5177C56.306 45.5177 56.1242 45.4997 55.941 45.4846L55.6512 45.453C55.0586 45.3829 54.4732 45.2616 53.9015 45.0905C53.7783 45.0544 53.6582 45.0183 53.538 44.9777C53.3879 44.9251 53.2287 44.8709 53.0785 44.8122C52.9283 44.7536 52.7661 44.6844 52.6099 44.6152C52.4537 44.546 52.275 44.4648 52.1083 44.379C51.9115 44.2797 51.7133 44.176 51.5241 44.0631C51.4204 44.003 51.3198 43.9398 51.2237 43.8766C51.0385 43.7613 50.8587 43.6399 50.6845 43.5126C50.6094 43.4584 50.5343 43.4073 50.4623 43.3501C50.219 43.1656 49.9862 42.9701 49.7639 42.7635C49.7143 42.7184 49.6708 42.6687 49.6137 42.6221C49.4335 42.4461 49.2578 42.2626 49.0926 42.0715L48.9289 41.882C48.7452 41.66 48.5733 41.4285 48.4137 41.1886L48.4227 41.1735C45.2689 38.1395 54.8507 34.1909 55.534 39.1278C55.8058 41.0035 54.9198 42.8071 56.1122 39.9807C57.2026 37.3558 56.0086 36.199 54.7515 35.6861C56.5538 34.9746 57.4714 34.3609 55.3988 33.6449C43.9953 27.9965 44.605 8.47313 43.5853 1.18666C42.567 8.47614 43.1467 27.9965 31.7837 33.6524C29.7112 34.3684 30.6258 34.9821 32.4295 35.6936C31.1725 36.2066 29.983 37.3633 31.0703 39.9882C32.2613 42.8146 31.3707 41.0111 31.6486 39.1353C32.3289 34.1984 41.9197 38.147 38.7568 41.181L38.7673 41.1976C38.6051 41.4398 38.4324 41.6714 38.2477 41.8955C38.1981 41.9542 38.1456 42.0129 38.0975 42.0715C37.9248 42.2701 37.7461 42.4611 37.5538 42.6447C37.5133 42.6838 37.4757 42.7259 37.4352 42.765C37.2084 42.9756 36.9696 43.1756 36.7233 43.3667C36.6602 43.4148 36.5927 43.4599 36.5266 43.5066C36.3403 43.6435 36.1511 43.7728 35.9544 43.8947C35.8643 43.9533 35.7711 44.0105 35.678 44.0661C35.4698 44.1875 35.2575 44.3023 35.0412 44.4106C34.9001 44.4813 34.7574 44.546 34.6117 44.6107C34.466 44.6754 34.2753 44.7611 34.1056 44.8243C33.9359 44.8875 33.8052 44.9341 33.655 44.9837C33.5289 45.0258 33.4027 45.0649 33.2736 45.1026C32.8868 45.2193 32.4937 45.3137 32.0961 45.3854H32.0856C31.9024 45.4169 31.7206 45.4395 31.5374 45.4606C31.4383 45.4726 31.3422 45.4831 31.237 45.4922C31.0553 45.5072 30.8736 45.5207 30.6919 45.5252C30.6063 45.5252 30.5192 45.5252 30.4336 45.5252C30.1326 45.5247 29.8319 45.5092 29.5324 45.4786C29.4138 45.4651 29.2952 45.4545 29.178 45.4365C29.0278 45.4139 28.8882 45.3869 28.747 45.3568C28.6058 45.3267 28.4541 45.2891 28.3099 45.2485C28.1988 45.2184 28.0847 45.1913 27.975 45.1552C27.7306 45.0742 27.4914 44.9782 27.2586 44.8679C27.1941 44.8393 27.134 44.8047 27.0724 44.7716C26.8649 44.6673 26.6642 44.5497 26.4717 44.4196C26.4341 44.3956 26.3936 44.3715 26.3575 44.3444C25.8643 43.9938 25.4328 43.5632 25.081 43.0703L25.0704 43.0613C23.7999 41.2954 23.3809 38.5321 24.5403 34.573C27.4344 24.6045 36.2277 10.1955 29.9019 0.500732H29.8629C30.6538 1.77917 31.0609 3.25845 31.0358 4.76221C31.0283 4.70655 31.0283 4.64939 31.0223 4.59373C31.0394 6.18914 30.8254 7.7786 30.387 9.31249C30.387 9.33656 30.3735 9.36063 30.366 9.38319C30.2233 9.9187 30.0656 10.4647 29.8779 11.0183C29.8779 11.0363 29.8659 11.0544 29.8599 11.0739C29.6901 11.5899 29.4979 12.1164 29.2967 12.6459C29.2501 12.7707 29.2035 12.8956 29.1555 13.0204C28.9632 13.5153 28.7635 14.0147 28.5547 14.5246C28.4917 14.6751 28.4241 14.8255 28.3565 14.9759C28.1733 15.4076 27.981 15.8408 27.7843 16.2771C27.7137 16.438 27.6416 16.5975 27.568 16.7584C27.3558 17.2177 27.14 17.68 26.9207 18.1453C26.8291 18.3333 26.7405 18.5214 26.6504 18.7109C26.4141 19.2013 26.1748 19.6942 25.9325 20.1896C25.8394 20.3761 25.7478 20.5641 25.6547 20.7521C25.4039 21.2576 25.15 21.7645 24.9037 22.2729L24.8842 22.3135C24.5098 23.0566 24.1373 23.8007 23.7668 24.5458C23.5496 24.984 23.3323 25.4218 23.115 25.859C22.9979 26.0936 22.8822 26.3283 22.7681 26.563C22.5879 26.9315 22.4077 27.3 22.2304 27.6671C22.1148 27.9062 22.0007 28.1469 21.8865 28.3861C21.6783 28.8243 21.4745 29.2595 21.2753 29.6918L21.035 30.2167C20.8022 30.7267 20.5844 31.2321 20.3636 31.736C20.3096 31.8669 20.254 31.9977 20.1999 32.1301C19.9687 32.6761 19.7494 33.2207 19.5376 33.7562C19.2943 34.388 19.0871 34.9957 18.9053 35.5913L18.8738 35.6906C17.387 40.5463 17.8225 44.1955 19.425 46.7738C19.4331 46.7898 19.4421 46.8054 19.452 46.8204C19.6435 47.1267 19.8521 47.422 20.0768 47.7049L20.1083 47.7274C24.686 53.269 35.4813 52.4161 41.4872 46.8249L41.4992 46.861C41.4836 46.9556 41.4741 47.051 41.4707 47.1468C41.4708 47.4142 41.5218 47.6792 41.6209 47.9275C41.3926 48.1943 41.222 48.5056 41.1195 48.8416C41.0171 49.1776 40.9851 49.5313 41.0256 49.8803C41.0661 50.2293 41.1781 50.5662 41.3547 50.8698C41.5313 51.1733 41.7687 51.4371 42.0519 51.6444V51.667C41.6747 52.0594 41.464 52.5829 41.464 53.1276C41.464 53.6723 41.6747 54.1958 42.0519 54.5882V65.8278C41.6164 66.1522 41.2942 66.6059 41.1308 67.1242C40.9675 67.6426 40.9714 68.1993 41.142 68.7153C41.3126 69.2314 41.6412 69.6804 42.0812 69.9987C42.5212 70.3169 43.0501 70.4882 43.5928 70.4882C44.1355 70.4882 44.6644 70.3169 45.1044 69.9987C45.5443 69.6804 45.873 69.2314 46.0436 68.7153C46.2142 68.1993 46.2181 67.6426 46.0548 67.1242C45.8914 66.6059 45.5691 66.1522 45.1337 65.8278V54.5807C45.5082 54.1887 45.7173 53.6671 45.7173 53.1246C45.7173 52.5821 45.5082 52.0605 45.1337 51.6685V51.6444C45.4154 51.4365 45.6514 51.1728 45.8271 50.8696C46.0028 50.5665 46.1143 50.2304 46.1549 49.8823C46.1955 49.5342 46.1641 49.1814 46.0629 48.8459C45.9616 48.5104 45.7926 48.1993 45.5662 47.932C45.6639 47.6833 45.7149 47.4186 45.7164 47.1513C45.7132 47.0564 45.7031 46.9619 45.6864 46.8685L45.6999 46.8294C51.7073 52.4221 62.5071 53.275 67.0818 47.7319C67.0818 47.7244 67.0998 47.7199 67.1088 47.7124C67.3299 47.4363 67.5341 47.147 67.72 46.846L67.7741 46.7647C67.9652 46.4539 68.1378 46.1319 68.2907 45.8005C68.2907 45.787 68.3028 45.7704 68.3103 45.7554C68.4656 45.4129 68.6001 45.0613 68.7128 44.7024C68.7128 44.6844 68.7248 44.6693 68.7293 44.6513C68.8505 44.2599 68.9483 43.8615 69.0221 43.4584V43.4163C69.4036 40.8245 69.159 38.1787 68.3088 35.7011" fill="#C3021B"/>
<path d="M178.247 15.2542C178.279 15.4415 178.296 15.6312 178.297 15.8213V16.7238C178.013 17.3663 177.613 17.9507 177.116 18.4476C176.478 19.0932 175.728 19.6185 174.904 19.9985C174.086 20.3766 173.267 20.7621 172.447 21.1553C171.639 21.5432 170.858 21.9876 170.112 22.485C169.356 22.9985 168.739 23.6922 168.317 24.5037C168.288 24.5283 168.265 24.5584 168.248 24.5922C168.231 24.626 168.221 24.6629 168.218 24.7007C168.434 25.0197 168.681 25.3165 168.955 25.5867C169.675 26.2762 170.466 26.8873 171.315 27.4098C172.172 27.9375 173.077 28.3823 174.018 28.7381C174.095 28.7909 174.159 28.8604 174.206 28.9413C174.253 29.0222 174.281 29.1126 174.288 29.2059C174.324 29.3603 174.349 29.5172 174.362 29.6752C174.553 30.4043 174.701 31.1442 174.805 31.8909C174.871 32.2835 174.919 32.6701 174.955 33.0477C174.991 33.4252 175.021 33.8103 175.053 34.2044V34.6963C175.054 34.8201 175.046 34.9437 175.029 35.0663C175.012 35.1822 174.988 35.2168 174.955 35.1897C174.333 34.9269 173.735 34.6477 173.161 34.3518C172.572 34.0474 172.005 33.702 171.465 33.3184C171.009 32.9945 170.574 32.6428 170.161 32.2655C169.743 31.8785 169.357 31.4584 169.006 31.0094C168.596 30.5073 168.256 29.9504 167.999 29.3548C167.745 28.7566 167.539 28.1389 167.384 27.5076C167.124 26.5036 166.927 25.4842 166.794 24.4555C166.663 23.4264 166.597 22.3899 166.597 21.3523C166.565 21.0246 166.573 20.6942 166.621 20.3685C166.671 20.0406 166.73 19.7112 166.794 19.3833C167.038 18.3986 167.569 17.5086 168.319 16.8261C168.937 16.1721 169.67 15.6378 170.481 15.2497L172.94 14.0688C173.745 13.6829 174.525 13.2468 175.275 12.7632C176.033 12.2646 176.651 11.5794 177.068 10.7731C177.098 10.745 177.123 10.7119 177.142 10.6753C177.162 10.6393 177.188 10.6068 177.219 10.579C177.219 10.5149 177.235 10.4742 177.268 10.4572C177.3 10.4406 177.333 10.4647 177.366 10.5309C177.394 10.5861 177.419 10.6435 177.439 10.7024C177.46 10.7614 177.485 10.8192 177.513 10.8754C177.612 11.1718 177.686 11.4763 177.734 11.7854C177.783 12.0983 177.842 12.4187 177.906 12.7466C177.972 13.1738 178.038 13.592 178.103 14.0011C178.169 14.4118 178.219 14.8315 178.253 15.2572" fill="#FFAF00"/>
</g>
<path d="M193.24 47.8508H195.277V53.1156C195.277 55.1553 194.376 55.8909 192.955 55.8909C191.534 55.8909 190.633 55.1553 190.633 53.1156V37.6913C190.633 35.6515 191.534 34.8754 192.955 34.8754C194.376 34.8754 195.277 35.65 195.277 37.6913V40.7524H199.515V37.9771C199.515 33.4072 197.234 30.7959 192.833 30.7959C188.433 30.7959 186.152 33.4057 186.152 37.9771V52.8298C186.152 57.3996 188.433 60.011 192.833 60.011C197.234 60.011 199.515 57.3996 199.515 52.8298V43.7714H193.24V47.8508ZM216.34 59.6846C215.936 58.5756 215.769 57.3937 215.851 56.2158V51.8084C215.851 48.8301 215.118 46.7076 212.877 45.769V45.6953C214.873 44.7566 215.81 42.8794 215.81 39.9416V37.6973C215.81 33.2899 213.814 31.1283 209.169 31.1283H202.411V59.6846H206.892V48.0554H208.441C210.477 48.0554 211.374 49.0346 211.374 51.6866V56.1752C211.268 57.3599 211.403 58.5538 211.772 59.6846H216.34ZM209.047 35.2018C210.636 35.2018 211.329 36.1043 211.329 38.1395V40.9554C211.329 43.2404 210.31 43.9744 208.64 43.9744H206.888V35.2018H209.047ZM228.722 31.1208H222.166L217.603 59.6846H221.718L222.492 54.5025H227.992L228.767 59.6846H233.289L228.722 31.1208ZM225.177 36.181H225.258L227.377 50.6216H223.063L225.177 36.181ZM241.547 31.1208H235.315V59.6846H239.219V39.4858H239.301L242.578 59.6846H246.814L249.829 39.2H249.91V59.6846H254.146V31.1208H247.914L244.899 51.4008H244.812L241.547 31.1208Z" fill="white"/>
<mask id="mask1_89_144" style="mask-type:luminance" maskUnits="userSpaceOnUse" x="0" y="0" width="283" height="93">
<path d="M283 0.500732H0V92.5007H283V0.500732Z" fill="white"/>
</mask>
<g mask="url(#mask1_89_144)">
<path d="M117.895 67.0147V66.9877C117.895 66.9696 117.877 66.9621 117.843 66.9621C117.85 66.9611 117.857 66.9618 117.864 66.964C117.87 66.9662 117.876 66.9699 117.882 66.9749C117.887 66.9798 117.89 66.9858 117.893 66.9924C117.895 66.9991 117.896 67.0077 117.895 67.0147Z" fill="#FFAF00"/>
<path d="M118.205 67.3743L118.256 67.4254C118.242 67.4104 118.221 67.3908 118.205 67.3743Z" fill="#FFAF00"/>
<path d="M118.579 67.8435C118.619 67.9037 118.639 67.9277 118.64 67.9217C118.642 67.9157 118.625 67.9037 118.618 67.8916C118.61 67.8796 118.592 67.8616 118.579 67.8435Z" fill="#FFAF00"/>
<path d="M281.067 71.2957C277.552 68.577 273.474 66.6814 269.132 65.7481C264.527 64.7827 259.732 65.41 255.53 67.5276C253.993 68.2255 252.493 69.0318 249.276 70.8625C245.78 72.8586 243.387 74.1281 240.643 75.4413C234.642 78.4844 228.215 80.5997 221.582 81.7154C220.778 81.8283 219.273 81.9937 219.029 81.9937H218.916C219.017 82.1637 216.979 82.281 216.885 82.0735H216.034C212.162 82.0242 208.316 81.4261 204.611 80.297C197.538 78.0268 191.029 74.2743 185.516 69.289C183.834 67.8149 181.28 65.3164 179.847 63.749C178.886 62.696 176.487 60.208 175.442 59.0859C175.655 58.9281 175.842 58.7377 175.996 58.5218C176.387 57.9604 176.691 57.3426 176.897 56.6896C177.169 55.8111 177.325 54.9009 177.361 53.982C177.394 53.0705 177.411 52.1679 177.412 51.2744C177.412 50.4832 177.387 49.6749 177.336 48.8496C177.285 48.0243 177.246 47.2145 177.219 46.4203C177.183 45.595 177.175 44.7691 177.193 43.9428C177.211 43.1165 177.22 42.2907 177.219 41.4654C177.183 40.5357 177.175 39.6152 177.193 38.7036C177.211 37.792 177.203 36.8714 177.167 35.9418H182.115C182.183 35.9418 182.148 35.7869 182.011 35.477L181.753 34.9611C181.574 34.6065 181.377 34.262 181.161 33.9292C180.937 33.5842 180.722 33.2573 180.517 32.9484C180.274 32.6035 180.043 32.2675 179.821 31.9406C179.597 31.6142 179.371 31.2968 179.126 30.9869C179.005 30.8561 178.893 30.718 178.789 30.5732C178.639 30.3672 178.489 30.2634 178.352 30.2634H173.662C173.464 30.1208 173.275 29.9661 173.096 29.8001C172.923 29.6963 172.778 29.6015 172.657 29.5158C172.551 29.4386 172.439 29.3697 172.322 29.3097C172.22 29.2571 172.172 29.2495 172.172 29.2826C172.206 29.4444 172.224 29.6092 172.225 29.7745V30.2634H164.339C164.064 30.0573 163.927 30.0062 163.927 30.113C163.909 30.1333 163.895 30.1571 163.886 30.1829C163.877 30.2087 163.873 30.2361 163.875 30.2634H143.921C143.723 30.1203 143.533 29.9656 143.353 29.8001C143.182 29.6998 143.036 29.605 142.916 29.5158C142.81 29.4389 142.698 29.3701 142.581 29.3097C142.478 29.2571 142.431 29.2495 142.431 29.2826C142.464 29.4445 142.481 29.6093 142.482 29.7745V30.2634H133.563C133.542 30.2634 133.534 30.2844 133.531 30.316H132.579C132.534 30.2873 132.482 30.2693 132.429 30.2634H94.0865C94.0189 30.2634 94.0535 30.4364 94.1901 30.7808C94.2592 30.9177 94.3403 31.0727 94.447 31.2441C94.6192 31.5891 94.8084 31.9336 95.0147 32.2775C95.2209 32.6215 95.4442 32.9655 95.6845 33.3094C96.0999 33.98 96.5653 34.6181 97.0767 35.2183C97.1959 35.3499 97.3077 35.488 97.4116 35.632C97.5618 35.838 97.712 35.9418 97.8502 35.9418H103.415C102.246 36.5265 101.121 37.1457 100.04 37.7996C98.9585 38.4534 97.8847 39.1574 96.8184 39.9115C96.6472 40.0499 96.476 40.1792 96.3033 40.2981C96.1305 40.4169 95.9593 40.5493 95.7881 40.6862C95.7551 40.7208 95.7626 40.7885 95.8137 40.8922C95.8669 40.9994 95.9271 41.1029 95.9939 41.2021C96.063 41.3024 96.123 41.3972 96.1741 41.4864C96.2252 41.5722 96.2522 41.5977 96.2522 41.5631C96.7678 42.2862 97.2684 42.923 97.754 43.4735C98.0284 43.7834 98.2947 44.0927 98.553 44.4016C98.8114 44.7105 99.0772 45.0033 99.3505 45.2801C99.4615 45.4336 99.5917 45.5721 99.738 45.6922C99.9603 45.8998 100.107 45.969 100.175 45.8998C101.207 45.1086 102.264 44.3685 103.345 43.6796C104.427 42.9906 105.535 42.3388 106.669 41.7241C107.77 41.1394 108.913 40.5974 110.096 40.098C111.28 39.5986 112.474 39.1599 113.678 38.7818C114.182 38.6128 114.699 38.4835 115.224 38.3952C115.752 38.3091 116.288 38.2829 116.822 38.317C116.618 39.3098 116.196 40.2446 115.586 41.0532C115.106 41.6713 114.551 42.2271 113.933 42.7078C113.315 43.1912 112.679 43.6385 112.026 44.0496C110.479 45.0524 108.924 46.0417 107.361 47.0175C105.798 47.9932 104.227 48.9825 102.646 49.9853L97.2389 53.3924C97.2059 53.4265 97.2149 53.4957 97.2659 53.5999C97.3195 53.704 97.3797 53.8045 97.4462 53.9008C97.5153 54.0046 97.5964 54.143 97.703 54.3145C97.9073 54.6543 98.1314 54.9818 98.3743 55.2952C98.6146 55.6051 98.8714 55.9134 99.1478 56.2248L99.9452 57.1274C100.211 57.4286 100.496 57.7129 100.797 57.9788L100.977 58.1593C101.028 58.2104 101.087 58.2721 101.157 58.3398C101.203 58.422 101.27 58.4897 101.352 58.5355C101.434 58.5812 101.528 58.603 101.621 58.5985C102.268 58.4273 102.935 58.3488 103.604 58.3653C104.274 58.3833 104.941 58.4787 105.589 58.6496C106.682 58.9236 107.737 59.3313 108.731 59.8636C109.732 60.397 110.695 60.9732 111.618 61.5919C111.858 61.7644 112.082 61.9193 112.289 62.0567C112.493 62.1951 112.7 62.35 112.906 62.5215C112.939 62.5215 112.957 62.5305 112.957 62.5471C112.957 62.5636 112.975 62.5727 113.01 62.5727C113.065 62.5997 113.115 62.6347 113.16 62.6765C113.204 62.7188 113.255 62.7534 113.31 62.7787C113.412 62.8825 113.516 62.9773 113.618 63.063C113.72 63.1488 113.842 63.2435 113.98 63.3473C114.157 63.5243 114.346 63.6882 114.546 63.8377C114.754 63.9881 114.959 64.1551 115.165 64.3281C115.365 64.4871 115.554 64.6595 115.731 64.844C115.784 64.864 115.829 64.8997 115.86 64.9463C115.87 64.9625 115.882 64.9768 115.896 64.9884C115.872 64.9808 115.851 64.9661 115.835 64.9463L115.985 65.0968V65.0441L116.036 65.0968C116.207 65.2682 116.398 65.4487 116.604 65.6383C116.81 65.8278 116.997 66.0068 117.17 66.1798C117.17 66.2144 117.205 66.2655 117.274 66.3302L117.479 66.5363L117.685 66.7439C117.706 66.796 117.742 66.8406 117.789 66.8717C117.798 66.8717 117.808 66.8883 117.817 66.8943C117.829 66.9106 117.837 66.9298 117.84 66.95H117.895V66.9876C117.895 66.9876 117.907 66.9876 117.912 66.9951C117.916 67.0026 117.912 67.0131 117.921 67.0131C117.93 67.0131 117.946 67.0297 117.946 67.0643L118.023 67.1425L118.101 67.2207C118.101 67.2553 118.101 67.2734 118.127 67.2734C118.152 67.2734 118.152 67.2899 118.152 67.3245L118.203 67.3742L118.157 67.2824C118.176 67.2988 118.19 67.3201 118.197 67.3441C118.197 67.3606 118.215 67.3862 118.248 67.4193L118.296 67.4644C118.314 67.484 118.329 67.502 118.353 67.5246C118.353 67.5471 118.362 67.5501 118.37 67.5592C118.331 67.5125 118.295 67.4674 118.25 67.4208L118.376 67.5712C118.394 67.5712 118.403 67.5878 118.403 67.6224C118.464 67.6875 118.52 67.7575 118.57 67.8314L118.486 67.7021L118.505 67.7261C118.561 67.7758 118.605 67.8375 118.634 67.9067C118.688 67.9881 118.749 68.0646 118.816 68.1353C118.855 68.2273 118.906 68.3142 118.966 68.394C119.035 68.4963 119.116 68.6076 119.197 68.7295C119.279 68.8513 119.361 68.9611 119.43 69.0649C119.482 69.1783 119.552 69.2828 119.636 69.3748C119.741 69.6171 119.88 69.843 120.049 70.0457C120.185 70.2863 120.314 70.5185 120.435 70.7421C120.566 70.9834 120.713 71.216 120.874 71.4386C120.943 71.5755 121.01 71.7048 121.079 71.8267C121.148 71.9485 121.216 72.0749 121.287 72.2132C121.32 72.2824 121.354 72.3501 121.389 72.4193L121.491 72.6254C121.525 72.66 121.543 72.6856 121.543 72.7036C121.543 72.7217 121.56 72.7457 121.594 72.7803C121.593 72.8087 121.602 72.8367 121.62 72.8586C121.63 72.8687 121.637 72.8808 121.642 72.894C121.646 72.9072 121.648 72.9213 121.647 72.9353C121.617 72.9095 121.598 72.8727 121.594 72.833C121.733 73.1083 121.869 73.4166 122.007 73.7611L122.213 74.1748L122.419 74.5869C122.878 75.7956 123.173 77.0603 123.296 78.3475C123.364 79.4435 123.206 80.5419 122.832 81.574C122.463 82.6103 121.8 83.5162 120.925 84.1809C120.89 84.214 120.89 84.2832 120.925 84.3869C120.961 84.4965 121.011 84.6007 121.075 84.6968C121.144 84.7991 121.246 84.9375 121.384 85.109C121.587 85.4494 121.811 85.7769 122.054 86.0897C122.294 86.3996 122.552 86.7095 122.827 87.0193C123.101 87.3292 123.368 87.6391 123.626 87.949C123.887 88.2624 124.171 88.5556 124.477 88.8259C124.546 88.8951 124.682 89.023 124.89 89.2125C125.097 89.402 125.23 89.4622 125.301 89.393C125.866 88.9677 126.339 88.4325 126.692 87.8196C127.037 87.2155 127.29 86.5629 127.443 85.8837C127.599 85.1971 127.672 84.4939 127.657 83.7898C127.641 83.079 127.564 82.3709 127.426 81.6733C127.258 80.8275 126.99 80.0049 126.627 79.2229C126.267 78.4488 125.897 77.6656 125.519 76.8733C124.732 75.3972 123.893 73.9862 123.002 72.6404C121.798 70.781 120.481 68.9972 119.059 67.2989C117.633 65.5942 116.147 63.951 114.602 62.3696C113.466 61.2364 112.28 60.1524 111.042 59.1175C109.806 58.0861 108.516 57.1215 107.177 56.2278C106.915 55.9954 106.62 55.8038 106.301 55.6592C107.158 55.1087 108.017 54.5667 108.878 54.0332C109.739 53.4997 110.598 52.9576 111.455 52.4071C112.244 51.8916 113.034 51.3842 113.825 50.8848C114.616 50.3854 115.406 49.895 116.195 49.4137C116.642 49.1389 117.08 48.8461 117.509 48.5352C117.932 48.2325 118.337 47.9055 118.721 47.556C118.79 47.6258 118.868 47.6864 118.953 47.7365C119.038 47.7876 119.115 47.8312 119.185 47.8658C119.881 48.2824 120.637 48.587 121.426 48.7684C122.228 48.9579 123.052 49.0358 123.874 49C124.424 48.9771 124.971 48.9056 125.508 48.7864C125.531 49.7198 125.692 50.6445 125.987 51.5301C126.159 52.0125 126.33 52.4858 126.503 52.9501C126.676 53.42 126.883 53.877 127.121 54.3175C127.667 55.5838 128.304 56.8085 129.027 57.9818C129.259 58.3456 129.51 58.6971 129.778 59.0347C130.053 59.3784 130.374 59.6822 130.732 59.9373C131.728 60.5641 132.92 60.8028 134.081 60.6081C134.767 60.5053 135.441 60.3325 136.092 60.0922C136.734 59.855 137.354 59.5616 137.945 59.2152C139.128 58.5423 140.245 57.7608 141.284 56.8807L141.862 57.4598C142.354 57.9853 142.888 58.4688 143.46 58.9054L147.326 63.0856L147.531 62.8795L144.541 59.5702H144.594C144.929 59.5164 145.25 59.3955 145.538 59.2145C145.826 59.0336 146.074 58.7965 146.268 58.5173C146.66 57.9558 146.964 57.3381 147.169 56.6851C147.44 55.8064 147.596 54.8963 147.634 53.9775C147.667 53.0659 147.684 52.1634 147.685 51.2699C147.685 50.4787 147.659 49.6704 147.607 48.8451C147.554 48.0198 147.513 47.2115 147.482 46.4203C147.447 45.595 147.439 44.7691 147.458 43.9428C147.477 43.1165 147.485 42.2907 147.482 41.4654C147.447 40.5357 147.439 39.6152 147.458 38.7036C147.473 37.8091 147.464 36.9065 147.432 35.996H153.663C153.633 36.4084 153.625 36.8222 153.641 37.2355C153.66 37.6678 153.703 38.0987 153.77 38.5261C153.838 39.108 153.941 39.6852 154.08 40.2545C154.217 40.8243 154.32 41.402 154.387 41.9843C154.455 42.2466 154.498 42.5144 154.517 42.7846C154.535 43.0418 154.56 43.3095 154.595 43.5833C154.628 44.203 154.636 44.8228 154.62 45.4425C154.603 46.0652 154.542 46.6859 154.44 47.3002C154.328 47.805 154.146 48.2916 153.899 48.7458C153.78 48.9771 153.609 49.1771 153.398 49.3295C153.187 49.4819 152.944 49.5823 152.687 49.6228C152.684 49.7901 152.737 49.9537 152.837 50.0876C152.939 50.2576 153.051 50.4214 153.172 50.578C153.293 50.7284 153.422 50.8969 153.558 51.0683C154.315 52.0712 155.063 53.0434 155.801 53.985C156.539 54.9267 157.32 55.8468 158.145 56.7453C158.729 57.3319 159.304 57.9171 159.872 58.5007C160.446 59.0916 161.075 59.6265 161.749 60.0982C162.379 60.5897 163.125 60.9099 163.915 61.0278C164.225 61.0431 164.536 60.9962 164.828 60.8898C165.12 60.7834 165.387 60.6196 165.615 60.4081C165.798 60.2953 165.963 60.1559 166.105 59.9944C166.26 59.8229 166.406 59.651 166.543 59.4785C166.715 59.2393 166.869 59.0137 167.006 58.8076C167.154 58.5816 167.275 58.3394 167.368 58.0856C167.605 57.6091 167.778 57.1033 167.883 56.5813C167.983 56.0659 168.069 55.5645 168.141 55.0771C168.311 54.0021 168.388 52.9146 168.373 51.8265C168.355 50.7605 168.312 49.6935 168.243 48.6255C168.174 47.5224 168.106 46.4042 168.038 45.271C167.97 44.1379 167.952 43.0192 167.985 41.9151C168.052 39.9075 168.258 37.907 168.604 35.9283H172.262V40.626C172.262 41.3134 172.288 42.0114 172.339 42.7154C172.39 43.4193 172.434 44.1188 172.468 44.8062C172.536 45.7359 172.562 46.6735 172.545 47.6191C172.53 48.5439 172.452 49.4666 172.313 50.3809C172.244 50.8322 172.151 51.2925 172.03 51.7738C171.913 52.2491 171.74 52.7087 171.515 53.1427C171.301 53.5608 171.013 53.9365 170.664 54.2513C170.3 54.5722 169.854 54.7866 169.376 54.871C169.341 54.871 169.359 54.9237 169.427 55.0214L169.634 55.3313C169.703 55.4351 169.805 55.572 169.935 55.745C170.211 56.0548 170.486 56.3472 170.759 56.6219L171.584 57.4478C172.075 57.9733 172.61 58.4568 173.182 58.8933L177.047 63.0736L177.253 62.8675L176.669 62.2207L177.537 63.051C178.399 63.8708 179.751 65.1569 180.541 65.9241C183.878 69.2325 187.387 72.3622 191.054 75.2999C194.445 78.0103 198.183 80.2548 202.167 81.9742C207.427 84.1114 213.029 85.2784 218.703 85.4188C219.904 85.4715 222.978 85.4384 223.809 85.3662C230.025 84.8081 236.826 82.6842 244.927 78.7702C247.2 77.6721 248.954 76.735 251.638 75.1916C255.384 73.0376 256.42 72.466 258.05 71.6597C261.148 69.9601 264.572 68.9393 268.094 68.6648C269.772 68.6138 271.452 68.6856 273.119 68.8799C276.489 69.2651 279.69 70.5655 282.375 72.6404C282.563 72.7926 282.764 72.928 282.976 73.0451C282.392 72.3967 281.746 71.8068 281.048 71.2836M137.891 51.0909C137.265 51.5978 136.614 52.0718 135.939 52.5109C135.344 52.8953 134.724 53.24 134.084 53.5428C133.434 53.8507 132.763 54.1097 132.074 54.3175C131.505 54.4872 130.916 54.5828 130.322 54.6018C129.72 54.6155 129.123 54.5007 128.569 54.2648C128.569 54.0256 128.578 53.8015 128.596 53.5954C128.614 53.3894 128.638 53.1652 128.673 52.923C128.938 51.6979 129.463 50.5439 130.211 49.5385C130.962 48.5266 131.908 47.6755 132.994 47.0355C134.129 46.3808 135.353 45.8939 136.628 45.5899C137.901 45.2821 139.209 45.1431 140.518 45.1763C141.277 45.1695 142.034 45.261 142.771 45.4485C142.78 45.623 142.79 45.796 142.796 45.969C142.76 46.0156 142.723 46.0698 142.688 46.1059C142.24 46.7256 141.768 47.3193 141.27 47.8869C140.773 48.4545 140.248 48.9965 139.698 49.513C139.114 50.0635 138.513 50.588 137.896 51.0864M142.526 40.6922C142.506 40.6756 142.493 40.6546 142.473 40.6395C141.731 39.9917 140.835 39.5471 139.87 39.3489C138.897 39.1429 137.903 39.056 136.909 39.0902C135.796 39.1257 134.689 39.2728 133.605 39.5294C132.513 39.7843 131.457 40.1744 130.461 40.6907C129.494 41.1775 128.614 41.8226 127.859 42.5995L127.818 42.6462C127.695 42.5093 127.567 42.3829 127.447 42.2385C127.19 41.9287 126.923 41.6368 126.648 41.3616C126.579 41.2924 126.433 41.1555 126.21 40.9479C125.986 40.7403 125.858 40.6726 125.824 40.7418C125.279 41.496 124.575 42.1213 123.763 42.574C122.941 43.0375 122.055 43.3766 121.133 43.5803C121.2 43.3542 121.235 43.1197 121.237 42.8838V42.1874C121.188 41.3823 120.94 40.6019 120.516 39.916C120.138 39.2628 119.707 38.6415 119.228 38.0583C118.746 37.4736 118.245 36.8885 117.726 36.3028C117.67 36.2478 117.619 36.1873 117.575 36.1223C117.531 36.0581 117.48 35.9977 117.425 35.9418H125.78C125.826 35.9692 125.877 35.9866 125.93 35.993H142.526V40.6922ZM163.319 49.0782C163.267 49.9901 163.138 50.896 162.933 51.7859C162.774 52.5406 162.514 53.2702 162.159 53.9549C162.099 54.0152 162.048 54.0848 162.009 54.161H161.958C161.785 54.4385 161.595 54.7057 161.391 54.9613C161.188 55.2155 160.944 55.4336 160.67 55.6066C160.45 55.7372 160.203 55.8164 159.949 55.8382C159.708 55.8561 159.465 55.8475 159.226 55.8127C159.054 55.7435 158.899 55.6833 158.762 55.6322C158.622 55.5796 158.485 55.5193 158.351 55.4517C158.288 55.3867 158.208 55.3417 158.119 55.3223C158.03 55.3042 157.949 55.259 157.887 55.1929L157.737 55.0425H157.684C157.638 55.0226 157.595 54.9968 157.556 54.9658C157.538 54.9492 157.582 54.9748 157.684 55.0425C157.629 54.9867 157.568 54.9363 157.504 54.8921C157.439 54.848 157.378 54.7976 157.324 54.7417C157.669 54.6372 157.969 54.4188 158.175 54.1219C158.401 53.8077 158.575 53.4593 158.69 53.09C158.812 52.7032 158.898 52.3059 158.947 51.9032C158.996 51.5437 159.022 51.1814 159.025 50.8186C159.058 50.3551 159.067 49.8902 159.051 49.4257C159.031 48.9595 158.988 48.4946 158.921 48.0328C158.889 47.5649 158.829 47.0992 158.741 46.6384C158.656 46.1871 158.578 45.7268 158.51 45.244C158.441 44.7977 158.372 44.3595 158.304 43.9293C158.234 43.4991 158.166 43.0433 158.097 42.5604C158.028 41.5064 158.098 40.4479 158.304 39.4121C158.404 38.8956 158.524 38.3792 158.665 37.8627C158.805 37.3463 158.925 36.8303 159.025 36.3149C159.053 36.1922 159.035 36.0634 158.973 35.9539H163.097C163.061 36.5044 163.037 37.0369 163.019 37.5544C163.001 38.0718 163.01 38.6073 163.044 39.1534C163.044 40.3567 163.094 41.5601 163.194 42.7635C163.294 43.9669 163.362 45.1703 163.398 46.3736C163.398 47.2702 163.373 48.1727 163.322 49.0813" fill="#FFAF00"/>
</g>
</g>
<defs>
<clipPath id="clip0_89_144">
<rect width="283" height="92" fill="white" transform="translate(0 0.500732)"/>
</clipPath>
</defs>
</svg>
