<svg width="20" height="20" viewBox="0 0 20 20" fill="none" xmlns="http://www.w3.org/2000/svg">
<path fill-rule="evenodd" clip-rule="evenodd" d="M14.243 5.75709C13.442 4.95651 12.4307 4.399 11.3261 4.149C10.2215 3.89901 9.06874 3.96673 8.00103 4.34435C6.93332 4.72198 5.99429 5.39407 5.29249 6.28294C4.5907 7.17181 4.1548 8.24115 4.03519 9.36733C3.91559 10.4935 4.11716 11.6306 4.6166 12.647C5.11604 13.6634 5.89296 14.5178 6.85754 15.1112C7.82212 15.7047 8.93496 16.013 10.0674 16.0006C11.1999 15.9882 12.3057 15.6556 13.257 15.0411C13.3671 14.9656 13.4913 14.9129 13.6221 14.8861C13.7529 14.8594 13.8878 14.8591 14.0187 14.8853C14.1496 14.9115 14.274 14.9636 14.3844 15.0387C14.4949 15.1137 14.5892 15.2101 14.6618 15.3222C14.7344 15.4342 14.7838 15.5597 14.8071 15.6912C14.8305 15.8226 14.8272 15.9575 14.7976 16.0877C14.768 16.2179 14.7126 16.3408 14.6347 16.4493C14.5568 16.5577 14.4579 16.6495 14.344 16.7191C12.8507 17.6847 11.0783 18.1252 9.30667 17.9711C7.53508 17.817 5.86533 17.077 4.56121 15.868C3.2571 14.6591 2.39298 13.05 2.10535 11.2952C1.81772 9.5403 2.12299 7.73961 2.97293 6.17759C3.82288 4.61557 5.16903 3.38126 6.79874 2.66966C8.42844 1.95806 10.2488 1.80974 11.9722 2.24813C13.6956 2.68652 15.2238 3.68663 16.3154 5.09045C17.407 6.49428 17.9998 8.2218 18 10.0001C18.0002 10.5573 17.8452 11.1036 17.5524 11.5776C17.2595 12.0517 16.8405 12.4349 16.3421 12.6841C15.8437 12.9334 15.2858 13.039 14.7308 12.989C14.1759 12.939 13.6458 12.7354 13.2 12.4011C12.6302 13.1609 11.8085 13.6931 10.8822 13.9026C9.95579 14.1121 8.98511 13.9851 8.14381 13.5443C7.3025 13.1036 6.64547 12.3779 6.29028 11.497C5.93508 10.6162 5.90489 9.63771 6.20512 8.73665C6.50535 7.83559 7.1164 7.07076 7.92893 6.57901C8.74147 6.08725 9.70248 5.90066 10.64 6.05262C11.5775 6.20458 12.4304 6.68517 13.046 7.40841C13.6616 8.13164 13.9998 9.05033 14 10.0001C14 10.2653 14.1054 10.5197 14.2929 10.7072C14.4804 10.8947 14.7348 11.0001 15 11.0001C15.2652 11.0001 15.5196 10.8947 15.7071 10.7072C15.8947 10.5197 16 10.2653 16 10.0001C16 8.46309 15.414 6.93009 14.243 5.75709ZM12 10.0001C12 9.46965 11.7893 8.96095 11.4142 8.58587C11.0392 8.2108 10.5304 8.00009 10 8.00009C9.46958 8.00009 8.96087 8.2108 8.5858 8.58587C8.21073 8.96095 8.00001 9.46965 8.00001 10.0001C8.00001 10.5305 8.21073 11.0392 8.5858 11.4143C8.96087 11.7894 9.46958 12.0001 10 12.0001C10.5304 12.0001 11.0392 11.7894 11.4142 11.4143C11.7893 11.0392 12 10.5305 12 10.0001Z" fill="white"/>
</svg>
