<svg width="491" height="159" viewBox="0 0 491 159" fill="none" xmlns="http://www.w3.org/2000/svg">
<mask id="mask0_89_310" style="mask-type:luminance" maskUnits="userSpaceOnUse" x="0" y="0" width="491" height="159">
<path d="M490.5 0H0.5V159H490.5V0Z" fill="white"/>
</mask>
<g mask="url(#mask0_89_310)">
<path fill-rule="evenodd" clip-rule="evenodd" d="M57.5913 124.265C56.5131 123.976 55.4469 123.654 54.3929 123.298C52.0874 122.486 49.8301 121.544 47.6319 120.475C44.8596 119.077 42.2168 117.437 39.7345 115.572L39.6955 115.546C29.7253 108.048 22.7642 97.2344 20.0686 85.0562C17.373 72.878 19.1204 60.1376 24.9956 49.1343C21.207 55.3346 18.7075 62.2347 17.6464 69.4225C16.5854 76.6103 16.9845 83.9381 18.8201 90.9682C20.6556 97.9983 23.8898 104.586 28.3295 110.339C32.7692 116.091 38.3232 120.889 44.6597 124.447L44.7065 124.473C47.0582 125.792 49.506 126.931 52.0291 127.882C52.3386 127.999 52.6506 128.11 52.9601 128.22C67.1974 133.513 82.841 133.647 97.1665 128.597C97.8478 128.376 98.5291 128.139 99.2156 127.882C102.444 126.665 105.548 125.14 108.483 123.327L108.507 123.314C120.67 115.804 129.365 103.786 132.691 89.8853C136.017 75.985 133.703 61.3337 126.254 49.1343C132.091 60.06 133.859 72.7026 131.243 84.8097C128.627 96.9169 121.796 107.702 111.968 115.245L111.95 115.258C110.129 116.656 108.218 117.933 106.229 119.079C102.601 121.066 98.7881 122.696 94.8444 123.946C94.3945 124.078 93.9421 124.206 93.487 124.325C91.8175 124.824 90.1325 125.251 88.4318 125.604C87.4922 125.798 86.55 125.972 85.6052 126.124C80.2992 126.987 74.9039 127.162 69.5531 126.644C69.3113 126.623 69.072 126.597 68.8302 126.571H68.7496C66.7317 126.356 64.719 126.051 62.7245 125.633V125.604C60.9909 125.24 59.279 124.807 57.5887 124.304" fill="#FFAF00"/>
<path fill-rule="evenodd" clip-rule="evenodd" d="M76.1997 138.657C77.7153 139.888 78.9355 141.443 79.7705 143.207C80.6054 144.972 81.0338 146.901 81.0241 148.853C81.0143 150.805 80.5667 152.73 79.7142 154.486C78.8618 156.242 77.6261 157.785 76.0982 159C74.5835 157.769 73.364 156.214 72.5297 154.449C71.6953 152.685 71.2672 150.756 71.277 148.804C71.2867 146.853 71.734 144.928 72.5859 143.172C73.4378 141.416 74.6727 139.873 76.1997 138.657Z" fill="#FFAF00"/>
<path fill-rule="evenodd" clip-rule="evenodd" d="M78.9925 137.004C80.4581 136.844 81.9409 137.014 83.3318 137.503C84.7228 137.992 85.9865 138.786 87.0298 139.827C88.0732 140.869 88.8697 142.131 89.3608 143.52C89.8518 144.91 90.0249 146.392 89.8673 147.858C88.4018 148.017 86.9192 147.846 85.5284 147.358C84.1377 146.869 82.8743 146.075 81.831 145.033C80.7877 143.992 79.9912 142.73 79.5 141.341C79.0088 139.951 78.8353 138.469 78.9925 137.004Z" fill="#FFAF00"/>
<path fill-rule="evenodd" clip-rule="evenodd" d="M65.6889 139.06C66.8363 138.135 68.177 137.48 69.612 137.142C71.0469 136.805 72.5393 136.794 73.9789 137.111C73.9799 138.584 73.6503 140.039 73.0146 141.368C72.3789 142.697 71.4532 143.867 70.3056 144.791C69.158 145.716 67.8177 146.371 66.3833 146.709C64.9489 147.047 63.457 147.059 62.0172 146.745C62.0144 145.27 62.3435 143.814 62.98 142.484C63.6164 141.154 64.5441 139.984 65.6941 139.06" fill="#FFAF00"/>
<path fill-rule="evenodd" clip-rule="evenodd" d="M37.441 124.039C37.821 125.805 37.7999 127.634 37.3792 129.391C36.9585 131.148 36.149 132.788 35.0102 134.191C33.8714 135.594 32.4323 136.723 30.7991 137.496C29.1658 138.269 27.3799 138.666 25.5729 138.657C25.1934 136.891 25.2148 135.063 25.6357 133.306C26.0566 131.549 26.8662 129.909 28.0049 128.507C29.1436 127.104 30.5824 125.975 32.2155 125.202C33.8485 124.428 35.6341 124.031 37.441 124.039Z" fill="#FFAF00"/>
<path fill-rule="evenodd" clip-rule="evenodd" d="M40.421 124.458C41.5718 125.191 42.5434 126.173 43.2644 127.331C43.9854 128.489 44.4374 129.794 44.5871 131.15C44.7368 132.506 44.5804 133.878 44.1294 135.166C43.6785 136.453 42.9444 137.623 41.9813 138.59C40.8305 137.857 39.8589 136.875 39.1379 135.717C38.4169 134.559 37.9649 133.253 37.8152 131.897C37.6655 130.542 37.8219 129.169 38.2729 127.882C38.7238 126.594 39.4579 125.424 40.421 124.458Z" fill="#FFAF00"/>
<path fill-rule="evenodd" clip-rule="evenodd" d="M29.6243 118.239C30.9887 118.237 32.3362 118.54 33.5673 119.129C34.7984 119.717 35.8814 120.574 36.7363 121.637C35.8823 122.701 34.8006 123.56 33.5706 124.151C32.3407 124.742 30.9938 125.049 29.6293 125.051C28.2648 125.052 26.9173 124.748 25.686 124.16C24.4548 123.572 23.3711 122.715 22.5148 121.653C23.3679 120.587 24.4498 119.727 25.6805 119.136C26.9112 118.545 28.259 118.239 29.6243 118.239Z" fill="#FFAF00"/>
<path fill-rule="evenodd" clip-rule="evenodd" d="M31.6448 89.219C32.8528 88.5625 34.1929 88.1857 35.5661 88.1164C36.9393 88.0471 38.3105 88.2871 39.5785 88.8187C39.3315 90.1708 38.7845 91.4504 37.9777 92.5633C37.171 93.6763 36.125 94.5943 34.9166 95.25C33.7083 95.9056 32.3683 96.2822 30.9952 96.352C29.6222 96.4218 28.2509 96.183 26.9823 95.6533C27.2275 94.3001 27.7739 93.0193 28.5809 91.9055C29.3879 90.7918 30.435 89.8737 31.6448 89.219Z" fill="#FFAF00"/>
<path fill-rule="evenodd" clip-rule="evenodd" d="M32.8123 97.0259C33.8053 97.3267 34.718 97.8466 35.4831 98.5471C36.2482 99.2477 36.8462 100.111 37.233 101.074C36.3757 101.659 35.398 102.045 34.3717 102.203C33.3455 102.361 32.2969 102.287 31.3031 101.986C30.3093 101.686 29.3956 101.166 28.6294 100.465C27.8632 99.7646 27.2639 98.9011 26.8757 97.9383C27.7328 97.3517 28.7108 96.9651 29.7375 96.8072C30.7642 96.6492 31.8132 96.724 32.8071 97.0259" fill="#FFAF00"/>
<path fill-rule="evenodd" clip-rule="evenodd" d="M27.2839 84.1548C27.9586 84.9436 28.4479 85.8736 28.7157 86.8763C28.9835 87.8791 29.0231 88.9291 28.8315 89.9491C28.6399 90.9692 28.222 91.9333 27.6086 92.7707C26.9952 93.608 26.2018 94.2972 25.2868 94.7875C24.6116 93.9989 24.122 93.069 23.8539 92.0661C23.5858 91.0633 23.5461 90.0131 23.7377 88.9929C23.9293 87.9727 24.3474 87.0084 24.9611 86.1711C25.5748 85.3338 26.3686 84.6448 27.2839 84.1548Z" fill="#FFAF00"/>
<path fill-rule="evenodd" clip-rule="evenodd" d="M14.022 72.9474C13.1357 73.8997 12.047 74.6409 10.8361 75.1166C9.62524 75.5924 8.32301 75.7903 7.0254 75.696C5.7278 75.6017 4.4679 75.2176 3.33855 74.5718C2.2092 73.926 1.23919 73.0351 0.5 71.9647C1.38625 71.0125 2.47494 70.2712 3.68584 69.7955C4.89673 69.3198 6.19896 69.1218 7.49657 69.2161C8.79418 69.3104 10.0541 69.6946 11.1834 70.3404C12.3128 70.9862 13.2828 71.8771 14.022 72.9474Z" fill="#FFAF00"/>
<path fill-rule="evenodd" clip-rule="evenodd" d="M14.9945 74.8713C15.0351 75.852 14.8552 76.8294 14.468 77.7315C14.0808 78.6335 13.4962 79.4373 12.7572 80.0836C12.0182 80.7299 11.1436 81.2022 10.1978 81.4659C9.25199 81.7296 8.25909 81.7778 7.29219 81.6071C7.25205 80.6264 7.43229 79.6493 7.81965 78.7475C8.207 77.8456 8.79163 77.0421 9.53054 76.3959C10.2694 75.7497 11.1438 75.2773 12.0894 75.0135C13.035 74.7496 14.0277 74.701 14.9945 74.8713Z" fill="#FFAF00"/>
<path fill-rule="evenodd" clip-rule="evenodd" d="M14.2222 65.9465C14.786 66.75 15.1615 67.6702 15.3209 68.6387C15.4803 69.6073 15.4194 70.5992 15.1427 71.541C14.1634 71.4748 13.2113 71.1899 12.3566 70.7072C11.5019 70.2246 10.7663 69.5565 10.204 68.7521C9.64163 67.9478 9.26685 67.0276 9.10721 66.0593C8.94756 65.091 9.00712 64.0992 9.28149 63.157C10.2613 63.2226 11.214 63.5073 12.0691 63.9901C12.9242 64.4729 13.66 65.1415 14.2222 65.9465Z" fill="#FFAF00"/>
<path fill-rule="evenodd" clip-rule="evenodd" d="M24.5535 48.4661C23.5023 48.2796 22.5063 47.8598 21.6389 47.2375C20.7714 46.6151 20.0547 45.8062 19.5415 44.8703C19.0282 43.9343 18.7315 42.8952 18.6732 41.8294C18.6149 40.7636 18.7964 39.6984 19.2045 38.712C20.2558 38.8985 21.2518 39.3184 22.1192 39.9407C22.9866 40.563 23.7033 41.3719 24.2166 42.3079C24.7298 43.2438 25.0266 44.2829 25.0849 45.3487C25.1432 46.4145 24.9616 47.4798 24.5535 48.4661Z" fill="#FFAF00"/>
<path fill-rule="evenodd" clip-rule="evenodd" d="M23.659 50.0025C23.0006 50.4669 22.2466 50.7779 21.4523 50.9127C20.6579 51.0476 19.8435 51.0027 19.0687 50.7815C18.294 50.5603 17.5787 50.1684 16.9753 49.6346C16.372 49.1007 15.8959 48.4385 15.5822 47.6966C16.2407 47.2312 16.9951 46.9194 17.79 46.7841C18.585 46.6487 19.4002 46.6933 20.1756 46.9145C20.951 47.1358 21.6669 47.528 22.2707 48.0624C22.8744 48.5969 23.3506 49.2598 23.6642 50.0025" fill="#FFAF00"/>
<path fill-rule="evenodd" clip-rule="evenodd" d="M29.4734 45.4947C29.1682 46.2391 28.7001 46.9057 28.1034 47.4455C27.5067 47.9854 26.7966 48.3848 26.0253 48.6143C25.6337 47.9097 25.405 47.1263 25.3562 46.3216C25.3074 45.517 25.4397 44.7117 25.7433 43.9649C26.0469 43.2182 26.5142 42.549 27.1106 42.0066C27.7071 41.4642 28.4177 41.0624 29.19 40.8308C29.5826 41.5353 29.812 42.319 29.861 43.124C29.9101 43.929 29.7776 44.7347 29.4734 45.4817" fill="#FFAF00"/>
<path fill-rule="evenodd" clip-rule="evenodd" d="M124.257 128.485C125.396 129.885 126.205 131.523 126.625 133.278C127.045 135.033 127.064 136.86 126.681 138.624C124.878 138.631 123.097 138.234 121.468 137.463C119.839 136.691 118.404 135.565 117.268 134.165C116.132 132.766 115.325 131.13 114.905 129.378C114.485 127.625 114.463 125.801 114.841 124.039C116.645 124.029 118.427 124.425 120.057 125.196C121.687 125.968 123.122 127.096 124.257 128.498" fill="#FFAF00"/>
<path fill-rule="evenodd" clip-rule="evenodd" d="M114.472 131.867C114.324 133.22 113.873 134.523 113.152 135.679C112.432 136.834 111.461 137.813 110.311 138.543C109.351 137.579 108.618 136.411 108.168 135.127C107.719 133.842 107.563 132.473 107.713 131.12C107.862 129.767 108.314 128.465 109.034 127.31C109.753 126.155 110.723 125.176 111.872 124.445C112.834 125.408 113.568 126.575 114.018 127.859C114.468 129.144 114.624 130.514 114.472 131.867Z" fill="#FFAF00"/>
<path fill-rule="evenodd" clip-rule="evenodd" d="M129.739 121.645C128.885 122.705 127.804 123.56 126.575 124.147C125.347 124.733 124.003 125.037 122.641 125.036C121.28 125.034 119.936 124.727 118.709 124.138C117.482 123.548 116.403 122.691 115.551 121.629C116.405 120.57 117.486 119.715 118.715 119.128C119.943 118.541 121.287 118.237 122.649 118.239C124.01 118.24 125.354 118.547 126.581 119.136C127.808 119.726 128.887 120.583 129.739 121.645Z" fill="#FFAF00"/>
<path fill-rule="evenodd" clip-rule="evenodd" d="M124.236 95.4452C122.928 95.9922 121.513 96.2386 120.097 96.1665C118.681 96.0944 117.298 95.7054 116.052 95.0284C114.806 94.3514 113.728 93.4035 112.897 92.2545C112.066 91.1056 111.503 89.7849 111.25 88.3897C112.558 87.8427 113.972 87.5959 115.388 87.6675C116.803 87.739 118.185 88.127 119.431 88.803C120.677 89.4789 121.755 90.4256 122.587 91.5733C123.419 92.721 123.982 94.0406 124.236 95.4348" fill="#FFAF00"/>
<path fill-rule="evenodd" clip-rule="evenodd" d="M124.343 97.8032C123.942 98.7954 123.325 99.6852 122.535 100.407C121.745 101.129 120.803 101.665 119.779 101.975C118.755 102.285 117.674 102.362 116.616 102.2C115.558 102.038 114.55 101.64 113.666 101.037C114.066 100.045 114.684 99.1546 115.474 98.4323C116.264 97.71 117.205 97.174 118.23 96.8637C119.254 96.5535 120.335 96.4768 121.393 96.6394C122.451 96.8019 123.459 97.1996 124.343 97.8032Z" fill="#FFAF00"/>
<path fill-rule="evenodd" clip-rule="evenodd" d="M127.586 88.5847C127.785 89.6372 127.745 90.7212 127.469 91.7562C127.193 92.7913 126.687 93.7509 125.989 94.564C125.045 94.0588 124.227 93.3483 123.594 92.4851C122.961 91.6218 122.53 90.6276 122.333 89.5757C122.135 88.5238 122.176 87.441 122.452 86.4071C122.729 85.3731 123.234 84.4142 123.93 83.6011C124.874 84.1053 125.693 84.8156 126.326 85.6791C126.959 86.5427 127.39 87.5375 127.586 88.5899" fill="#FFAF00"/>
<path fill-rule="evenodd" clip-rule="evenodd" d="M142.551 69.2195C143.848 69.1248 145.149 69.3223 146.359 69.7975C147.57 70.2726 148.658 71.0132 149.543 71.9647C148.804 73.0351 147.834 73.926 146.705 74.5718C145.576 75.2176 144.316 75.6018 143.018 75.6961C141.72 75.7904 140.418 75.5924 139.207 75.1167C137.996 74.641 136.908 73.8997 136.021 72.9474C136.76 71.8766 137.729 70.9856 138.859 70.3403C139.988 69.6949 141.248 69.3119 142.546 69.2195" fill="#FFAF00"/>
<path fill-rule="evenodd" clip-rule="evenodd" d="M140.512 76.4025C141.25 77.0473 141.833 77.8489 142.22 78.7486C142.607 79.6484 142.788 80.6233 142.749 81.6019C141.782 81.772 140.79 81.7235 139.845 81.4599C138.9 81.1964 138.026 80.7245 137.287 80.0789C136.548 79.4333 135.963 78.6304 135.575 77.7292C135.188 76.828 135.007 75.8515 135.046 74.8713C136.013 74.7014 137.005 74.7502 137.95 75.0143C138.895 75.2784 139.769 75.751 140.507 76.3973" fill="#FFAF00"/>
<path fill-rule="evenodd" clip-rule="evenodd" d="M140.762 63.1726C141.037 64.1153 141.097 65.1076 140.937 66.0765C140.777 67.0453 140.402 67.966 139.839 68.7706C139.276 69.5752 138.54 70.2432 137.684 70.7254C136.828 71.2076 135.875 71.4916 134.895 71.5566C134.622 70.614 134.563 69.6221 134.724 68.6539C134.884 67.6856 135.259 66.7655 135.822 65.9613C136.385 65.1571 137.121 64.4892 137.975 64.0066C138.83 63.524 139.782 63.239 140.762 63.1726Z" fill="#FFAF00"/>
<path fill-rule="evenodd" clip-rule="evenodd" d="M127.399 42.1827C127.911 41.2465 128.628 40.4373 129.495 39.815C130.362 39.1927 131.358 38.7732 132.409 38.5873C132.818 39.5736 132.999 40.6389 132.941 41.7047C132.883 42.7704 132.586 43.8096 132.073 44.7455C131.559 45.6815 130.843 46.4904 129.975 47.1127C129.108 47.735 128.112 48.1549 127.06 48.3413C126.652 47.3551 126.47 46.2895 126.528 45.2235C126.587 44.1575 126.884 43.1183 127.399 42.1827Z" fill="#FFAF00"/>
<path fill-rule="evenodd" clip-rule="evenodd" d="M131.442 46.7946C132.217 46.5728 133.032 46.5278 133.827 46.6627C134.622 46.7977 135.376 47.1093 136.034 47.5745C135.721 48.3172 135.245 48.9801 134.641 49.5146C134.037 50.049 133.321 50.4412 132.546 50.6625C131.77 50.8837 130.955 50.9283 130.16 50.793C129.365 50.6576 128.611 50.3458 127.952 49.8804C128.266 49.1375 128.742 48.4744 129.346 47.9403C129.95 47.4061 130.666 47.0146 131.442 46.7946Z" fill="#FFAF00"/>
<path fill-rule="evenodd" clip-rule="evenodd" d="M122.419 40.7112C123.191 40.943 123.901 41.345 124.496 41.8873C125.092 42.4297 125.559 43.0988 125.862 43.8453C126.165 44.5918 126.297 45.3967 126.248 46.2009C126.199 47.0051 125.97 47.788 125.578 48.4921C124.806 48.2611 124.095 47.8598 123.498 47.3178C122.901 46.7758 122.434 46.1069 122.13 45.3603C121.826 44.6136 121.694 43.8084 121.742 43.0038C121.791 42.1992 122.019 41.4158 122.411 40.7112" fill="#FFAF00"/>
<path d="M118.781 60.8329L118.724 60.6561C118.404 59.6162 118.048 58.5764 117.626 57.4871C117.267 56.5564 116.877 55.6101 116.477 54.6586C116.386 54.4428 116.298 54.2271 116.217 54.0113C115.837 53.1308 115.445 52.2418 115.039 51.344C114.912 51.0658 114.779 50.7877 114.654 50.5095C114.285 49.7036 113.906 48.8959 113.518 48.0866C113.369 47.772 113.219 47.46 113.07 47.1455C112.709 46.402 112.348 45.6533 111.976 44.9045C111.825 44.5952 111.669 44.2832 111.518 43.9713L110.174 41.278C109.989 40.9062 109.802 40.5371 109.617 40.1653L108.034 37.0093C107.744 36.4287 107.456 35.8489 107.17 35.2701C106.949 34.8229 106.723 34.3732 106.504 33.926C106.117 33.1461 105.737 32.3662 105.358 31.5707L104.801 30.4086C104.474 29.7145 104.149 29.0256 103.831 28.3289C103.658 27.9355 103.485 27.5455 103.311 27.159C102.997 26.4623 102.692 25.7734 102.396 25.0793C102.268 24.7829 102.136 24.4865 102.016 24.1928C101.657 23.3401 101.311 22.4943 100.976 21.6555C100.885 21.4241 100.799 21.1927 100.716 20.9613C100.378 20.0567 100.048 19.1572 99.7539 18.2759C99.7539 18.2343 99.7305 18.1953 99.7149 18.1537C99.4028 17.2039 99.1237 16.2689 98.8776 15.3486C98.8646 15.307 98.8516 15.2654 98.8412 15.2238C98.0798 12.5733 97.7092 9.826 97.7412 7.06857C97.7282 7.16736 97.7282 7.27135 97.7152 7.37274C97.6636 4.77252 98.3633 2.21261 99.7305 0H99.6603C88.7127 16.755 103.938 41.6575 108.941 58.8857C110.951 65.7307 110.223 70.5089 108.023 73.5584C107.414 74.4081 106.668 75.1505 105.815 75.7551L105.594 75.9007C105.271 76.1177 104.935 76.3156 104.588 76.4935C104.474 76.5506 104.364 76.6156 104.245 76.6702C103.844 76.8585 103.432 77.0226 103.012 77.1616C102.82 77.224 102.62 77.2734 102.422 77.3254C102.18 77.3929 101.928 77.4579 101.676 77.5099C101.423 77.5619 101.179 77.6087 100.927 77.6477C100.726 77.6789 100.521 77.6971 100.316 77.7179C99.7973 77.7728 99.2765 77.8006 98.7553 77.8011C98.6045 77.8011 98.4563 77.8011 98.3029 77.8011C97.9908 77.8011 97.6762 77.7699 97.3589 77.7439L96.8571 77.6893C95.8311 77.5682 94.8175 77.3585 93.8276 77.0628C93.6144 77.0004 93.4064 76.938 93.1983 76.8678C92.9383 76.7768 92.6627 76.6832 92.4026 76.5818C92.1426 76.4805 91.8617 76.3609 91.5913 76.2413C91.3209 76.1217 91.0114 75.9813 90.7228 75.8331C90.3821 75.6616 90.0389 75.4822 89.7112 75.2872C89.5318 75.1832 89.3576 75.074 89.1911 74.9648C88.8704 74.7655 88.5593 74.5558 88.2576 74.3357C88.1276 74.2421 87.9976 74.1537 87.8728 74.0549C87.4515 73.736 87.0484 73.3981 86.6636 73.0411C86.5778 72.9631 86.5024 72.8773 86.4035 72.7967C86.0915 72.4925 85.7873 72.1754 85.5012 71.8452L85.2178 71.5176C84.8998 71.1339 84.6021 70.7339 84.3258 70.3192L84.3414 70.2932C78.8806 65.0496 95.4711 58.2254 96.6542 66.7576C97.1249 69.9994 95.5907 73.1164 97.6554 68.2316C99.5433 63.6952 97.476 61.696 95.2994 60.8095C98.4199 59.5798 100.009 58.5192 96.4202 57.2817C76.6755 47.5198 77.7313 13.7784 75.9656 1.18546C74.2026 13.7836 75.2063 47.5198 55.5318 57.2947C51.9433 58.5322 53.5269 59.5928 56.65 60.8225C54.4735 61.709 52.414 63.7081 54.2967 68.2446C56.3588 73.1294 54.8167 70.0124 55.2978 66.7706C56.4758 58.2384 73.0818 65.0626 67.6054 70.3062L67.6236 70.3348C67.3428 70.7533 67.0437 71.1537 66.7239 71.541C66.6381 71.6424 66.547 71.7438 66.4638 71.8452C66.1648 72.1884 65.8553 72.5185 65.5225 72.8357C65.4523 72.9033 65.3873 72.9761 65.3171 73.0437C64.9244 73.4076 64.5109 73.7534 64.0845 74.0835C63.9753 74.1667 63.8582 74.2447 63.7438 74.3253C63.4214 74.5619 63.0937 74.7855 62.7531 74.996C62.5971 75.0974 62.4358 75.1962 62.2746 75.2924C61.914 75.5021 61.5465 75.7005 61.1721 75.8877C60.9276 76.0099 60.6806 76.1217 60.4283 76.2335C60.1761 76.3453 59.8459 76.4935 59.552 76.6026C59.2582 76.7118 59.0319 76.7924 58.7719 76.8782C58.5535 76.951 58.335 77.0186 58.1114 77.0836C57.4418 77.2854 56.7611 77.4485 56.0727 77.5723H56.0545C55.7373 77.6269 55.4226 77.6659 55.1054 77.7023C54.9337 77.7231 54.7673 77.7413 54.5853 77.7569C54.2706 77.7829 53.956 77.8063 53.6414 77.8141C53.4931 77.8141 53.3423 77.8141 53.1941 77.8141C52.673 77.8132 52.1523 77.7863 51.6339 77.7335C51.4284 77.7101 51.223 77.6919 51.0202 77.6607C50.7601 77.6217 50.5183 77.5749 50.2739 77.5229C50.0294 77.4709 49.7668 77.4059 49.5172 77.3358C49.3247 77.2838 49.1271 77.237 48.9373 77.1746C48.5141 77.0345 48.0998 76.8687 47.6969 76.678C47.5851 76.6286 47.4811 76.5688 47.3744 76.5117C47.0151 76.3313 46.6677 76.1281 46.3343 75.9033C46.2693 75.8617 46.1991 75.8201 46.1367 75.7733C45.2826 75.1673 44.5356 74.4231 43.9263 73.5714L43.9081 73.5558C41.7082 70.5038 40.9827 65.7281 42.9902 58.8857C48.0011 41.6575 63.2264 16.755 52.2736 0H52.206C53.5754 2.20947 54.2804 4.76605 54.2368 7.36494C54.2238 7.26875 54.2238 7.16996 54.2134 7.07377C54.243 9.83105 53.8725 12.578 53.1135 15.229C53.1135 15.2706 53.0901 15.3122 53.0771 15.3512C52.83 16.2767 52.557 17.2204 52.232 18.1771C52.232 18.2083 52.2112 18.2395 52.2007 18.2733C51.9069 19.165 51.5741 20.0749 51.2256 20.9899C51.145 21.2057 51.0644 21.4215 50.9812 21.6373C50.6483 22.4926 50.3025 23.3557 49.941 24.237C49.8318 24.4969 49.7148 24.7569 49.5978 25.0169C49.2805 25.763 48.9477 26.5117 48.607 27.2656C48.4848 27.5438 48.36 27.8193 48.2326 28.0975C47.8651 28.8913 47.4915 29.6903 47.1118 30.4944C46.9532 30.8194 46.7998 31.1444 46.6437 31.4719C46.2346 32.3194 45.8203 33.1713 45.4008 34.0274C45.2395 34.3498 45.0809 34.6747 44.9197 34.9997C44.4854 35.8732 44.046 36.7493 43.6195 37.628L43.5857 37.6982C42.9373 38.9824 42.2924 40.2684 41.651 41.5561C41.2748 42.3135 40.8986 43.07 40.5224 43.8257C40.3196 44.2312 40.1194 44.6368 39.9218 45.0423C39.6097 45.6793 39.2977 46.3162 38.9908 46.9505C38.7906 47.3639 38.593 47.7798 38.3953 48.1932C38.0347 48.9505 37.682 49.7027 37.337 50.4497L36.9209 51.357C36.5179 52.2383 36.1408 53.1118 35.7585 53.9827C35.6649 54.2089 35.5687 54.435 35.4751 54.6638C35.0746 55.6075 34.695 56.5486 34.3283 57.4741C33.9071 58.5659 33.5482 59.6162 33.2336 60.6457L33.179 60.8173C30.6046 69.2091 31.3587 75.516 34.1333 79.9718C34.1474 79.9996 34.163 80.0265 34.1801 80.0524C34.5117 80.5819 34.8729 81.0922 35.2619 81.5811L35.3165 81.6201C43.2424 91.1973 61.934 89.7233 72.3329 80.0602L72.3537 80.1226C72.3267 80.286 72.3102 80.451 72.3043 80.6166C72.3045 81.0787 72.3927 81.5367 72.5643 81.9658C72.1692 82.427 71.8737 82.9649 71.6963 83.5456C71.5189 84.1264 71.4636 84.7376 71.5336 85.3407C71.6037 85.9439 71.7977 86.5261 72.1035 87.0508C72.4093 87.5755 72.8203 88.0313 73.3106 88.3897V88.4287C72.6575 89.1068 72.2927 90.0116 72.2927 90.953C72.2927 91.8943 72.6575 92.7991 73.3106 93.4773V112.902C72.5567 113.463 71.9987 114.247 71.7158 115.143C71.433 116.039 71.4398 117.001 71.7352 117.893C72.0306 118.784 72.5996 119.561 73.3614 120.111C74.1232 120.661 75.0389 120.957 75.9786 120.957C76.9183 120.957 77.8341 120.661 78.5959 120.111C79.3576 119.561 79.9266 118.784 80.222 117.893C80.5175 117.001 80.5242 116.039 80.2414 115.143C79.9586 114.247 79.4006 113.463 78.6466 112.902V93.4643C79.2951 92.7869 79.6571 91.8854 79.6571 90.9478C79.6571 90.0101 79.2951 89.1087 78.6466 88.4313V88.3897C79.1344 88.0303 79.543 87.5745 79.8472 87.0506C80.1514 86.5267 80.3446 85.9459 80.4148 85.3442C80.485 84.7426 80.4308 84.1329 80.2554 83.5531C80.0801 82.9732 79.7874 82.4356 79.3955 81.9736C79.5647 81.5438 79.6529 81.0863 79.6556 80.6244C79.65 80.4604 79.6326 80.2971 79.6036 80.1356L79.627 80.068C90.0285 89.7337 108.728 91.2077 116.649 81.6279C116.649 81.6149 116.68 81.6071 116.695 81.5941C117.078 81.1169 117.432 80.6168 117.754 80.0966L117.847 79.9562C118.178 79.419 118.477 78.8625 118.742 78.2898C118.742 78.2664 118.763 78.2378 118.776 78.2119C119.045 77.62 119.277 77.0122 119.473 76.3921C119.473 76.3609 119.493 76.3349 119.501 76.3037C119.711 75.6272 119.88 74.9388 120.008 74.2421V74.1693C120.669 69.6899 120.245 65.1174 118.773 60.8355" fill="#C3021B"/>
<path d="M309.126 25.4979C309.182 25.8216 309.211 26.1495 309.212 26.478V28.0378C308.72 29.1482 308.027 30.1582 307.168 31.017C306.062 32.1327 304.765 33.0406 303.338 33.6973C301.921 34.3507 300.503 35.0171 299.083 35.6965C297.683 36.367 296.332 37.1349 295.04 37.9946C293.731 38.8821 292.663 40.0809 291.932 41.4834C291.883 41.526 291.842 41.578 291.812 41.6365C291.783 41.6949 291.765 41.7587 291.761 41.824C292.135 42.3753 292.562 42.8882 293.038 43.3552C294.284 44.5468 295.653 45.603 297.123 46.506C298.607 47.418 300.174 48.1866 301.803 48.8015C301.937 48.8929 302.048 49.0129 302.129 49.1528C302.21 49.2927 302.259 49.4489 302.271 49.6101C302.334 49.877 302.376 50.1481 302.399 50.4212C302.73 51.6813 302.986 52.96 303.166 54.2505C303.28 54.929 303.364 55.5972 303.426 56.2497C303.488 56.9022 303.54 57.5677 303.595 58.2488V59.0989C303.596 59.3128 303.583 59.5266 303.553 59.7385C303.525 59.9387 303.483 59.9984 303.426 59.9517C302.349 59.4976 301.314 59.0149 300.319 58.5036C299.3 57.9774 298.319 57.3806 297.383 56.7176C296.594 56.1577 295.84 55.55 295.126 54.8978C294.402 54.229 293.733 53.5031 293.126 52.7271C292.415 51.8593 291.827 50.8969 291.381 49.8674C290.941 48.8336 290.586 47.766 290.318 46.675C289.867 44.9398 289.526 43.1781 289.296 41.4002C289.068 39.6216 288.954 37.8302 288.955 36.037C288.899 35.4708 288.913 34.8997 288.997 34.3368C289.082 33.7701 289.184 33.2008 289.296 32.634C289.719 30.9322 290.637 29.3941 291.935 28.2146C293.005 27.0844 294.275 26.1608 295.68 25.4901L299.936 23.4493C301.33 22.7823 302.681 22.0286 303.98 21.1928C305.293 20.3312 306.362 19.1469 307.085 17.7534C307.137 17.7049 307.18 17.6477 307.212 17.5844C307.247 17.5222 307.292 17.466 307.345 17.418C307.345 17.3071 307.373 17.2369 307.431 17.2074C307.485 17.1788 307.542 17.2204 307.6 17.3348C307.649 17.4303 307.692 17.5294 307.727 17.6312C307.764 17.7333 307.806 17.8331 307.854 17.9302C308.027 18.4425 308.155 18.9687 308.237 19.503C308.323 20.0437 308.424 20.5974 308.536 21.1642C308.65 21.9025 308.764 22.6252 308.876 23.3323C308.991 24.042 309.077 24.7674 309.136 25.5031" fill="#FFAF00"/>
</g>
<path d="M335.086 81.8333H338.612V90.9322C338.612 94.4574 337.052 95.7286 334.592 95.7286C332.132 95.7286 330.571 94.4574 330.571 90.9322V64.2749C330.571 60.7497 332.132 59.4083 334.592 59.4083C337.052 59.4083 338.612 60.7471 338.612 64.2749V69.5653H345.95V64.7689C345.95 56.871 342 52.3579 334.381 52.3579C326.762 52.3579 322.812 56.8684 322.812 64.7689V90.4383C322.812 98.3361 326.762 102.849 334.381 102.849C342 102.849 345.95 98.3361 345.95 90.4383V74.7829H335.086V81.8333ZM375.082 102.285C374.382 100.368 374.093 98.3258 374.234 96.2902V88.6731C374.234 83.5257 372.965 79.8575 369.086 78.2353V78.1079C372.542 76.4857 374.164 73.2413 374.164 68.1641V64.2853C374.164 56.6682 370.708 52.9324 362.665 52.9324H350.964V102.285H358.723V82.1868H361.404C364.93 82.1868 366.483 83.8792 366.483 88.4625V96.22C366.299 98.2675 366.534 100.331 367.172 102.285H375.082ZM362.455 59.9724C365.206 59.9724 366.405 61.5322 366.405 65.0496V69.9163C366.405 73.8652 364.642 75.1338 361.75 75.1338H358.715V59.9724H362.455ZM396.52 52.9194H385.169L377.269 102.285H384.394L385.733 93.3291H395.256L396.598 102.285H404.427L396.52 52.9194ZM390.383 61.6648H390.523L394.192 86.6219H386.721L390.383 61.6648ZM418.727 52.9194H407.935V102.285H414.696V67.3764H414.837L420.511 102.285H427.846L433.065 66.8824H433.206V102.285H440.541V52.9194H429.75L424.531 87.9685H424.38L418.727 52.9194Z" fill="#282828"/>
<mask id="mask1_89_310" style="mask-type:luminance" maskUnits="userSpaceOnUse" x="0" y="0" width="491" height="159">
<path d="M490.5 0H0.5V159H490.5V0Z" fill="white"/>
</mask>
<g mask="url(#mask1_89_310)">
<path d="M204.63 114.953V114.907C204.63 114.875 204.599 114.862 204.539 114.862C204.551 114.861 204.563 114.862 204.575 114.866C204.586 114.869 204.597 114.876 204.606 114.884C204.615 114.893 204.621 114.903 204.625 114.915C204.63 114.926 204.631 114.941 204.63 114.953Z" fill="#FFAF00"/>
<path d="M205.165 115.575L205.254 115.663C205.23 115.637 205.194 115.603 205.165 115.575Z" fill="#FFAF00"/>
<path d="M205.813 116.386C205.883 116.49 205.917 116.531 205.92 116.521C205.922 116.511 205.894 116.49 205.881 116.469C205.868 116.448 205.836 116.417 205.813 116.386Z" fill="#FFAF00"/>
<path d="M487.153 122.352C481.067 117.654 474.006 114.378 466.488 112.764C458.516 111.096 450.213 112.18 442.936 115.84C440.276 117.046 437.678 118.44 432.108 121.603C426.055 125.053 421.912 127.247 417.161 129.517C406.771 134.776 395.643 138.432 384.157 140.36C382.766 140.555 380.161 140.841 379.737 140.841H379.542C379.716 141.135 376.187 141.338 376.026 140.979H374.552C367.847 140.894 361.188 139.86 354.773 137.909C342.527 133.985 331.257 127.5 321.712 118.884C318.799 116.336 314.376 112.018 311.895 109.309C310.231 107.49 306.078 103.19 304.269 101.25C304.637 100.978 304.961 100.649 305.228 100.275C305.906 99.3052 306.432 98.2375 306.788 97.109C307.258 95.5907 307.528 94.0177 307.592 92.4296C307.649 90.8542 307.679 89.2943 307.68 87.7501C307.68 86.3827 307.636 84.9858 307.548 83.5594C307.459 82.133 307.392 80.7335 307.345 79.3609C307.284 77.9345 307.269 76.5073 307.301 75.0792C307.332 73.6511 307.347 72.2239 307.345 70.7975C307.284 69.1909 307.269 67.5999 307.301 66.0245C307.332 64.449 307.317 62.858 307.256 61.2514H315.822C315.94 61.2514 315.88 60.9837 315.643 60.4481L315.195 59.5564C314.887 58.9436 314.545 58.3483 314.171 57.773C313.782 57.1768 313.411 56.6118 313.055 56.078C312.636 55.4818 312.234 54.9012 311.851 54.3362C311.464 53.7721 311.071 53.2236 310.647 52.688C310.439 52.462 310.244 52.2232 310.065 51.9731C309.805 51.617 309.545 51.4376 309.308 51.4376H301.187C300.844 51.1912 300.517 50.9238 300.207 50.6369C299.908 50.4575 299.655 50.2937 299.447 50.1455C299.264 50.0122 299.07 49.8931 298.868 49.7894C298.691 49.6984 298.608 49.6854 298.608 49.7426C298.666 50.0222 298.696 50.307 298.699 50.5927V51.4376H285.044C284.568 51.0814 284.331 50.993 284.331 51.1776C284.3 51.2128 284.276 51.2539 284.26 51.2985C284.244 51.3431 284.238 51.3904 284.24 51.4376H249.692C249.349 51.1904 249.02 50.923 248.709 50.6369C248.412 50.4636 248.16 50.2998 247.952 50.1455C247.768 50.0127 247.574 49.8937 247.372 49.7894C247.193 49.6984 247.112 49.6854 247.112 49.7426C247.17 50.0223 247.199 50.3071 247.201 50.5927V51.4376H231.757C231.721 51.4376 231.708 51.474 231.702 51.5286H230.054C229.975 51.4789 229.886 51.4478 229.794 51.4376H163.406C163.289 51.4376 163.349 51.7365 163.585 52.3319C163.705 52.5684 163.845 52.8362 164.03 53.1326C164.328 53.7288 164.656 54.3241 165.013 54.9186C165.37 55.513 165.757 56.1075 166.173 56.702C166.892 57.8608 167.698 58.9636 168.583 60.001C168.79 60.2284 168.983 60.4671 169.163 60.7159C169.423 61.072 169.683 61.2514 169.923 61.2514H179.557C177.534 62.2618 175.586 63.332 173.714 64.462C171.842 65.592 169.982 66.8087 168.136 68.112C167.84 68.3512 167.543 68.5748 167.244 68.7801C166.945 68.9855 166.649 69.2143 166.352 69.4509C166.295 69.5107 166.308 69.6276 166.396 69.807C166.489 69.9921 166.593 70.171 166.708 70.3426C166.828 70.5159 166.932 70.6797 167.021 70.8339C167.109 70.9821 167.156 71.0263 167.156 70.9665C168.049 72.2161 168.915 73.3166 169.756 74.2681C170.231 74.8036 170.692 75.3383 171.14 75.8721C171.587 76.4059 172.047 76.912 172.52 77.3903C172.712 77.6556 172.938 77.895 173.191 78.1027C173.576 78.4614 173.831 78.581 173.948 78.4614C175.735 77.094 177.565 75.8149 179.437 74.6243C181.31 73.4336 183.228 72.3071 185.192 71.2447C187.099 70.2342 189.077 69.2975 191.126 68.4344C193.175 67.5713 195.242 66.813 197.328 66.1596C198.201 65.8675 199.096 65.6441 200.004 65.4915C200.918 65.3427 201.846 65.2973 202.771 65.3563C202.418 67.0722 201.687 68.6877 200.63 70.0852C199.799 71.1534 198.839 72.114 197.77 72.9449C196.699 73.7802 195.598 74.5532 194.468 75.2638C191.789 76.9969 189.097 78.7066 186.391 80.393C183.685 82.0793 180.963 83.7891 178.226 85.5222L168.864 91.4105C168.807 91.4694 168.823 91.589 168.911 91.7693C169.004 91.9491 169.108 92.1227 169.223 92.2892C169.343 92.4686 169.483 92.7077 169.668 93.0041C170.021 93.5915 170.41 94.1575 170.83 94.6991C171.246 95.2346 171.691 95.7676 172.169 96.3057L173.55 97.8655C174.011 98.3861 174.503 98.8775 175.024 99.337L175.337 99.6489C175.425 99.7373 175.526 99.8439 175.649 99.9609C175.727 100.103 175.845 100.22 175.987 100.299C176.128 100.378 176.29 100.416 176.452 100.408C177.571 100.112 178.727 99.9765 179.885 100.005C181.046 100.036 182.199 100.201 183.322 100.496C185.215 100.97 187.042 101.675 188.762 102.594C190.496 103.516 192.162 104.512 193.76 105.581C194.176 105.88 194.564 106.147 194.923 106.385C195.276 106.624 195.635 106.892 195.991 107.188C196.049 107.188 196.08 107.204 196.08 107.232C196.08 107.261 196.111 107.276 196.171 107.276C196.266 107.323 196.353 107.384 196.431 107.456C196.507 107.529 196.595 107.589 196.691 107.633C196.868 107.812 197.047 107.976 197.224 108.124C197.401 108.272 197.611 108.436 197.851 108.615C198.156 108.921 198.484 109.204 198.831 109.463C199.19 109.723 199.546 110.011 199.902 110.31C200.249 110.585 200.576 110.883 200.883 111.202C200.974 111.237 201.052 111.298 201.106 111.379C201.122 111.407 201.144 111.431 201.169 111.452C201.127 111.438 201.09 111.413 201.062 111.379L201.322 111.639V111.548L201.411 111.639C201.707 111.935 202.037 112.247 202.393 112.575C202.75 112.902 203.075 113.212 203.374 113.511C203.374 113.57 203.434 113.659 203.553 113.77L203.909 114.127L204.266 114.485C204.302 114.575 204.364 114.653 204.445 114.706C204.461 114.706 204.479 114.735 204.495 114.745C204.516 114.774 204.529 114.807 204.534 114.842H204.63V114.907C204.63 114.907 204.651 114.907 204.658 114.92C204.666 114.933 204.658 114.951 204.674 114.951C204.69 114.951 204.718 114.979 204.718 115.039L204.851 115.174L204.986 115.31C204.986 115.369 204.986 115.4 205.03 115.4C205.074 115.4 205.074 115.429 205.074 115.489L205.163 115.575L205.082 115.416C205.115 115.444 205.139 115.481 205.152 115.523C205.152 115.551 205.184 115.595 205.241 115.653L205.324 115.731C205.355 115.764 205.381 115.796 205.423 115.835C205.423 115.874 205.439 115.879 205.452 115.894C205.384 115.814 205.322 115.736 205.243 115.655L205.462 115.915C205.493 115.915 205.509 115.944 205.509 116.004C205.614 116.116 205.711 116.237 205.797 116.365L205.652 116.141L205.686 116.183C205.783 116.269 205.859 116.375 205.909 116.495C206.002 116.636 206.108 116.768 206.224 116.89C206.292 117.049 206.379 117.199 206.484 117.337C206.603 117.514 206.744 117.706 206.884 117.917C207.025 118.128 207.168 118.317 207.287 118.497C207.378 118.693 207.498 118.873 207.644 119.032C207.825 119.451 208.066 119.841 208.359 120.192C208.595 120.608 208.817 121.009 209.027 121.395C209.254 121.812 209.508 122.214 209.786 122.599C209.906 122.836 210.023 123.059 210.143 123.27C210.262 123.48 210.379 123.699 210.501 123.938C210.559 124.057 210.618 124.174 210.678 124.294L210.855 124.65C210.915 124.71 210.946 124.754 210.946 124.785C210.946 124.817 210.975 124.858 211.035 124.918C211.031 124.967 211.047 125.015 211.079 125.053C211.095 125.071 211.108 125.092 211.116 125.114C211.124 125.137 211.128 125.162 211.126 125.186C211.073 125.141 211.04 125.078 211.035 125.009C211.274 125.485 211.51 126.018 211.75 126.613L212.106 127.328L212.462 128.04C213.257 130.129 213.767 132.315 213.981 134.539C214.099 136.434 213.826 138.332 213.177 140.116C212.538 141.907 211.39 143.472 209.875 144.621C209.815 144.678 209.815 144.798 209.875 144.977C209.937 145.167 210.025 145.347 210.135 145.513C210.254 145.69 210.431 145.929 210.67 146.225C211.022 146.813 211.409 147.379 211.83 147.92C212.246 148.456 212.693 148.991 213.169 149.527C213.643 150.062 214.106 150.598 214.553 151.133C215.004 151.675 215.496 152.182 216.025 152.649C216.144 152.769 216.381 152.989 216.74 153.317C217.099 153.645 217.33 153.749 217.452 153.629C218.43 152.894 219.249 151.969 219.86 150.91C220.458 149.866 220.897 148.738 221.16 147.564C221.432 146.377 221.557 145.162 221.532 143.945C221.504 142.717 221.37 141.493 221.132 140.287C220.841 138.826 220.377 137.404 219.748 136.052C219.124 134.714 218.485 133.361 217.829 131.992C216.467 129.441 215.014 127.002 213.471 124.676C211.386 121.463 209.107 118.38 206.645 115.445C204.175 112.498 201.602 109.659 198.927 106.925C196.961 104.967 194.907 103.094 192.764 101.305C190.624 99.5225 188.389 97.8554 186.071 96.3109C185.618 95.9093 185.107 95.578 184.555 95.3282C186.039 94.3767 187.526 93.44 189.017 92.518C190.508 91.5959 191.995 90.6592 193.479 89.7077C194.845 88.8169 196.213 87.9399 197.583 87.0768C198.952 86.2137 200.32 85.3662 201.686 84.5343C202.459 84.0594 203.218 83.5533 203.961 83.0161C204.693 82.4929 205.394 81.9278 206.06 81.3237C206.18 81.4443 206.314 81.5492 206.46 81.6356C206.609 81.724 206.741 81.7994 206.864 81.8592C208.067 82.5791 209.376 83.1055 210.743 83.419C212.131 83.7466 213.557 83.8813 214.982 83.8194C215.934 83.7798 216.881 83.6562 217.811 83.4502C217.85 85.0633 218.13 86.6615 218.641 88.1921C218.937 89.0257 219.234 89.8437 219.533 90.6462C219.833 91.4583 220.191 92.248 220.604 93.0093C221.548 95.1978 222.651 97.3144 223.904 99.3422C224.305 99.971 224.739 100.578 225.204 101.162C225.679 101.756 226.235 102.281 226.855 102.722C228.581 103.805 230.644 104.218 232.654 103.881C233.842 103.704 235.009 103.405 236.136 102.99C237.248 102.58 238.322 102.072 239.345 101.474C241.393 100.311 243.328 98.9602 245.126 97.4392L246.127 98.4401C246.978 99.3483 247.903 100.184 248.893 100.938L255.587 108.163L255.943 107.807L250.766 102.087H250.857C251.438 101.994 251.994 101.785 252.492 101.473C252.99 101.16 253.42 100.75 253.756 100.268C254.434 99.2974 254.96 98.2297 255.316 97.1012C255.785 95.5826 256.055 94.0097 256.12 92.4218C256.177 90.8464 256.207 89.2865 256.208 87.7423C256.208 86.3749 256.163 84.978 256.073 83.5516C255.983 82.1252 255.911 80.7283 255.857 79.3609C255.797 77.9345 255.783 76.5073 255.816 75.0792C255.849 73.6511 255.862 72.2239 255.857 70.7975C255.797 69.1909 255.783 67.5999 255.816 66.0245C255.842 64.4785 255.827 62.9187 255.771 61.345H266.56C266.508 62.0578 266.495 62.7729 266.521 63.4872C266.554 64.2343 266.628 64.979 266.745 65.7177C266.863 66.7233 267.042 67.7209 267.281 68.7048C267.519 69.6896 267.697 70.688 267.814 71.6944C267.93 72.1476 268.005 72.6106 268.037 73.0774C268.069 73.522 268.113 73.9847 268.173 74.4579C268.23 75.529 268.245 76.6 268.217 77.6711C268.186 78.7472 268.082 79.8199 267.905 80.8817C267.711 81.7542 267.396 82.5951 266.969 83.38C266.763 83.7798 266.465 84.1254 266.101 84.3888C265.736 84.6521 265.315 84.8258 264.87 84.8957C264.865 85.1849 264.957 85.4676 265.13 85.699C265.306 85.9928 265.5 86.2759 265.71 86.5465C265.918 86.8064 266.142 87.0976 266.378 87.394C267.689 89.1271 268.983 90.8074 270.261 92.4348C271.538 94.0622 272.892 95.6523 274.32 97.2052C275.331 98.2191 276.327 99.2304 277.31 100.239C278.304 101.26 279.392 102.185 280.561 103C281.652 103.849 282.943 104.403 284.311 104.607C284.848 104.633 285.385 104.552 285.891 104.368C286.396 104.184 286.86 103.901 287.254 103.535C287.571 103.341 287.856 103.1 288.102 102.821C288.371 102.524 288.624 102.227 288.861 101.929C289.158 101.516 289.426 101.126 289.662 100.769C289.918 100.379 290.129 99.9602 290.289 99.5216C290.7 98.6982 291 97.824 291.181 96.9219C291.354 96.031 291.503 95.1645 291.628 94.3222C291.921 92.4643 292.055 90.5848 292.029 88.7042C291.997 86.8619 291.923 85.0178 291.805 83.1721C291.685 81.2656 291.567 79.3332 291.449 77.3747C291.331 75.4163 291.3 73.483 291.358 71.5748C291.473 68.1051 291.831 64.6478 292.429 61.228H298.764V69.3469C298.764 70.5349 298.808 71.7412 298.896 72.9579C298.985 74.1745 299.06 75.3834 299.12 76.5714C299.238 78.178 299.282 79.7985 299.252 81.4329C299.226 83.0311 299.092 84.6257 298.852 86.2059C298.732 86.9858 298.571 87.7813 298.36 88.6132C298.159 89.4346 297.86 90.2289 297.469 90.9789C297.098 91.7016 296.6 92.3509 295.997 92.8949C295.365 93.4496 294.593 93.8201 293.766 93.966C293.706 93.966 293.737 94.057 293.854 94.226L294.213 94.7615C294.333 94.9409 294.509 95.1775 294.733 95.4764C295.211 96.012 295.687 96.5172 296.161 96.992L297.588 98.4193C298.439 99.3275 299.365 100.163 300.355 100.918L307.048 108.142L307.405 107.786L306.393 106.668L307.896 108.103C309.389 109.52 311.729 111.743 313.097 113.069C318.875 118.786 324.951 124.195 331.3 129.272C337.172 133.957 343.643 137.836 350.542 140.807C359.649 144.501 369.348 146.518 379.172 146.761C381.253 146.852 386.576 146.794 388.014 146.67C398.777 145.705 410.551 142.034 424.578 135.27C428.515 133.372 431.552 131.753 436.199 129.085C442.684 125.363 444.478 124.375 447.3 122.981C452.665 120.044 458.593 118.28 464.691 117.805C467.597 117.717 470.505 117.841 473.392 118.177C479.227 118.843 484.768 121.09 489.418 124.676C489.744 124.939 490.092 125.173 490.458 125.376C489.447 124.255 488.329 123.235 487.119 122.331M239.251 87.433C238.168 88.309 237.039 89.1282 235.871 89.8871C234.841 90.5514 233.768 91.1472 232.659 91.6705C231.534 92.2027 230.371 92.6502 229.18 93.0093C228.194 93.3027 227.174 93.4678 226.145 93.5007C225.104 93.5245 224.069 93.3259 223.111 92.9183C223.111 92.505 223.126 92.1176 223.158 91.7615C223.189 91.4053 223.23 91.0179 223.29 90.5994C223.75 88.482 224.658 86.4876 225.953 84.7501C227.254 83.0012 228.893 81.5303 230.771 80.4242C232.738 79.2927 234.857 78.4512 237.064 77.9259C239.268 77.3939 241.533 77.1535 243.799 77.211C245.114 77.1992 246.425 77.3574 247.7 77.6815C247.716 77.9831 247.734 78.282 247.744 78.581C247.682 78.6616 247.617 78.7552 247.557 78.8176C246.782 79.8886 245.964 80.9147 245.102 81.8956C244.241 82.8766 243.333 83.8133 242.38 84.7059C241.369 85.6574 240.329 86.5638 239.259 87.4252M247.276 69.4613C247.242 69.4327 247.219 69.3963 247.185 69.3703C245.9 68.2507 244.348 67.4823 242.679 67.1397C240.994 66.7837 239.272 66.6336 237.551 66.6926C235.623 66.7539 233.707 67.0082 231.83 67.4517C229.939 67.8922 228.111 68.5664 226.387 69.4587C224.712 70.3 223.189 71.415 221.881 72.7577L221.811 72.8383C221.597 72.6017 221.376 72.3833 221.168 72.1338C220.724 71.5982 220.261 71.0939 219.785 70.6181C219.665 70.4985 219.413 70.262 219.026 69.9032C218.638 69.5445 218.417 69.4275 218.357 69.5471C217.414 70.8504 216.196 71.9312 214.789 72.7135C213.366 73.5146 211.831 74.1007 210.236 74.4527C210.352 74.0619 210.413 73.6567 210.416 73.249V72.0454C210.33 70.6539 209.901 69.3053 209.167 68.1198C208.512 66.9909 207.766 65.9172 206.936 64.9092C206.102 63.8988 205.236 62.8875 204.336 61.8754C204.239 61.7802 204.152 61.6757 204.076 61.5634C203.998 61.4523 203.911 61.3479 203.816 61.2514H218.282C218.361 61.2987 218.45 61.3288 218.542 61.3398H247.276V69.4613ZM283.278 83.9546C283.189 85.5306 282.966 87.0961 282.61 88.634C282.335 89.9384 281.885 91.1994 281.271 92.3828C281.166 92.4869 281.078 92.6071 281.011 92.7389H280.922C280.622 93.2185 280.293 93.6803 279.939 94.122C279.589 94.5613 279.167 94.9383 278.691 95.2372C278.311 95.463 277.884 95.5999 277.443 95.6376C277.026 95.6684 276.606 95.6536 276.192 95.5934C275.894 95.4738 275.626 95.3698 275.389 95.2814C275.146 95.1906 274.908 95.0865 274.676 94.9695C274.568 94.8573 274.428 94.7795 274.276 94.7459C274.122 94.7146 273.981 94.6365 273.873 94.5223L273.613 94.2624H273.522C273.443 94.228 273.368 94.1834 273.301 94.1298C273.269 94.1012 273.345 94.1454 273.522 94.2624C273.426 94.1659 273.322 94.0788 273.21 94.0024C273.097 93.9262 272.993 93.8391 272.898 93.7424C273.496 93.5619 274.015 93.1845 274.372 92.6713C274.763 92.1283 275.064 91.5262 275.264 90.888C275.475 90.2195 275.624 89.5328 275.709 88.8368C275.793 88.2154 275.838 87.5894 275.844 86.9624C275.901 86.1613 275.916 85.3578 275.888 84.5551C275.855 83.7494 275.78 82.9459 275.664 82.1478C275.608 81.339 275.504 80.5343 275.352 79.7379C275.204 78.958 275.069 78.1624 274.952 77.3279C274.832 76.5567 274.714 75.7993 274.596 75.0558C274.473 74.3123 274.356 73.5246 274.237 72.6901C274.118 70.8685 274.238 69.0391 274.596 67.2489C274.769 66.3564 274.977 65.4638 275.22 64.5712C275.462 63.6787 275.67 62.787 275.844 61.8961C275.893 61.6841 275.86 61.4614 275.753 61.2722H282.893C282.831 62.2237 282.789 63.144 282.758 64.0383C282.727 64.9326 282.743 65.8581 282.802 66.8018C282.802 68.8815 282.889 70.9613 283.062 73.041C283.236 75.1208 283.354 77.2006 283.416 79.2803C283.416 80.8297 283.372 82.3896 283.284 83.9598" fill="#FFAF00"/>
</g>
</svg>
