<svg width="42" height="42" viewBox="0 0 42 42" fill="none" xmlns="http://www.w3.org/2000/svg">
<path d="M36.7024 11.7555C35.8897 12.8396 34.9072 13.7853 33.793 14.5561C33.793 14.8393 33.793 15.1225 33.793 15.4214C33.8019 20.5644 31.7476 25.4959 28.0906 29.1104C24.4335 32.7248 19.4796 34.7198 14.3396 34.6481C11.368 34.6581 8.4344 33.9796 5.76871 32.6657C5.62496 32.6029 5.53227 32.4608 5.53281 32.3038V32.1307C5.53281 31.9048 5.71588 31.7217 5.9417 31.7217C8.86271 31.6253 11.6795 30.6126 13.9936 28.8267C11.3496 28.7733 8.97081 27.2071 7.87602 24.7987C7.82074 24.6673 7.83794 24.5163 7.92147 24.4006C8.00498 24.2849 8.14272 24.2212 8.28491 24.2324C9.08846 24.3131 9.90004 24.2384 10.6753 24.0121C7.75666 23.4063 5.56359 20.9832 5.24973 18.0175C5.23858 17.8752 5.30233 17.7375 5.41797 17.6538C5.5336 17.5704 5.68439 17.553 5.81589 17.6085C6.59912 17.9541 7.44463 18.1361 8.30064 18.1433C5.74319 16.4648 4.63854 13.2721 5.61144 10.3709C5.71187 10.089 5.95314 9.88071 6.2466 9.82265C6.54004 9.76457 6.8424 9.86524 7.04253 10.0877C10.4937 13.7607 15.2355 15.9494 20.2683 16.1924C20.1395 15.678 20.0761 15.1493 20.0796 14.619C20.1267 11.8383 21.8473 9.36112 24.4359 8.34728C27.0243 7.33345 29.9685 7.98356 31.8902 9.99327C33.1999 9.74374 34.4662 9.30379 35.6487 8.68737C35.7353 8.6333 35.8452 8.6333 35.9318 8.68737C35.9859 8.77403 35.9859 8.88391 35.9318 8.97057C35.3591 10.2822 34.3915 11.3822 33.164 12.1173C34.2389 11.9927 35.2948 11.7391 36.3093 11.3621C36.3947 11.304 36.5069 11.304 36.5923 11.3621C36.6639 11.3948 36.7174 11.4574 36.7386 11.5332C36.7598 11.609 36.7465 11.6903 36.7024 11.7555Z" fill="#FFD755"/>
</svg>
