<svg width="42" height="42" viewBox="0 0 42 42" fill="none" xmlns="http://www.w3.org/2000/svg">
<path d="M37.7878 12.6053C37.5884 11.8657 37.1989 11.1913 36.6579 10.6491C36.1169 10.1068 35.4433 9.71577 34.7042 9.51476C31.9637 8.76226 21 8.75001 21 8.75001C21 8.75001 10.038 8.73776 7.29575 9.45701C6.55712 9.66727 5.88493 10.0639 5.34374 10.6087C4.80254 11.1536 4.4105 11.8285 4.20525 12.5685C3.4825 15.309 3.4755 20.993 3.4755 20.993C3.4755 20.993 3.4685 26.705 4.186 29.4175C4.5885 30.9173 5.76975 32.102 7.27125 32.5063C10.0397 33.2588 20.9737 33.271 20.9737 33.271C20.9737 33.271 31.9375 33.2833 34.678 32.5658C35.4174 32.3651 36.0916 31.9749 36.6339 31.4338C37.1762 30.8927 37.5679 30.2194 37.7702 29.4805C38.4947 26.7418 38.5 21.0595 38.5 21.0595C38.5 21.0595 38.535 15.3458 37.7878 12.6053ZM17.493 26.2588L17.5017 15.7588L26.614 21.0175L17.493 26.2588Z" fill="#FFD755"/>
</svg>
